<svg width="30" height="31" viewBox="0 0 30 31" fill="none" xmlns="http://www.w3.org/2000/svg">
<g clip-path="url(#clip0_5561_1148)">
<path d="M20.0255 0.212157C18.3239 0.327001 16.5028 1.3395 15.3755 2.70591C14.3888 3.90825 13.5614 5.6731 13.8755 7.50591C13.5942 7.41919 13.3388 7.40981 13.0317 7.29966C12.195 7.002 11.2388 6.68091 10.0505 6.68091C7.69033 6.68091 5.27392 8.08481 3.75049 10.4309C1.5333 13.8387 1.97861 19.8364 5.34424 24.9622C5.9372 25.8622 6.62861 26.8442 7.48174 27.6247C8.33486 28.4051 9.36611 29.0004 10.5755 29.0122C11.6091 29.0239 12.3286 28.6793 12.9755 28.3934C13.6224 28.1075 14.2247 27.8543 15.3567 27.8497C15.3638 27.8497 15.3685 27.8497 15.3755 27.8497C16.5028 27.8403 17.0864 28.0887 17.7192 28.3747C18.352 28.6606 19.0645 29.0215 20.1005 29.0122C21.3333 29.0028 22.381 28.3278 23.2505 27.4934C24.12 26.659 24.8349 25.6348 25.4255 24.7372C26.2716 23.4481 26.6114 22.745 27.263 21.3059C27.331 21.1559 27.3333 20.9825 27.2677 20.8301C27.2044 20.6778 27.0802 20.5583 26.9255 20.4997C24.7927 19.6934 23.5763 17.8067 23.4005 15.8122C23.2247 13.8176 24.0685 11.7645 26.1942 10.5997C26.3513 10.5153 26.4614 10.3676 26.4989 10.1942C26.5341 10.0208 26.4919 9.83794 26.3817 9.69966C24.856 7.80356 22.7091 6.68091 20.6067 6.68091C19.2661 6.68091 18.2817 6.99731 17.4755 7.29966C17.3419 7.35122 17.2435 7.34653 17.1192 7.39341C17.9372 6.96216 18.6591 6.3645 19.2005 5.66841C20.1849 4.40513 20.9442 2.60747 20.663 0.718407C20.6161 0.409032 20.3372 0.18872 20.0255 0.212157ZM19.388 1.63716C19.3481 2.84888 18.9333 4.03481 18.2442 4.91841C17.5224 5.84653 16.3083 6.48872 15.1317 6.68091C15.1528 5.51606 15.6122 4.30903 16.313 3.45591C17.0489 2.56528 18.2677 1.92309 19.388 1.63716ZM10.0505 7.88091C11.0185 7.88091 11.7942 8.13169 12.6192 8.42466C13.4442 8.71763 14.3138 9.06216 15.338 9.06216C16.3388 9.06216 17.131 8.71528 17.9067 8.42466C18.6825 8.13403 19.456 7.88091 20.6067 7.88091C22.1091 7.88091 23.7333 8.66138 25.013 10.0184C22.9645 11.4645 22.006 13.7192 22.2005 15.9059C22.395 18.1161 23.7263 20.2137 25.913 21.3059C25.4395 22.3372 25.1278 23.0192 24.4317 24.0809C23.8575 24.9551 23.1755 25.9114 22.4255 26.6309C21.6755 27.3504 20.881 27.8051 20.0817 27.8122C19.3106 27.8192 18.8724 27.5895 18.2067 27.2872C17.5411 26.9848 16.681 26.6379 15.3567 26.6497C14.0349 26.6567 13.163 26.9895 12.488 27.2872C11.813 27.5848 11.37 27.8192 10.5942 27.8122C9.77392 27.8051 9.0122 27.4067 8.28799 26.7434C7.56377 26.0801 6.90986 25.1754 6.33799 24.3059C3.18799 19.5059 2.93486 13.8668 4.74424 11.0872C6.0708 9.04575 8.17783 7.88091 10.0505 7.88091Z" fill="url(#paint0_linear_5561_1148)"/>
</g>
<defs>
<linearGradient id="paint0_linear_5561_1148" x1="27.3155" y1="14.6114" x2="2.38379" y2="14.6114" gradientUnits="userSpaceOnUse">
<stop stop-color="#F3C344"/>
<stop offset="1" stop-color="#126100"/>
</linearGradient>
<clipPath id="clip0_5561_1148">
<rect width="30" height="30" fill="white" transform="translate(0 0.211914)"/>
</clipPath>
</defs>
</svg>
