<svg width="187" height="60" viewBox="0 0 187 60" fill="none" xmlns="http://www.w3.org/2000/svg">
<path d="M0 15C0 6.71573 6.71573 0 15 0H172C180.284 0 187 6.71573 187 15V45C187 53.2843 180.284 60 172 60H15C6.71573 60 0 53.2843 0 45V15Z" fill="white"/>
<path d="M47.2569 27.5519H46.25V27.5H35V32.5H42.0644C41.0338 35.4106 38.2644 37.5 35 37.5C30.8581 37.5 27.5 34.1419 27.5 30C27.5 25.8581 30.8581 22.5 35 22.5C36.9119 22.5 38.6513 23.2212 39.9756 24.3994L43.5112 20.8637C41.2787 18.7831 38.2925 17.5 35 17.5C28.0969 17.5 22.5 23.0969 22.5 30C22.5 36.9031 28.0969 42.5 35 42.5C41.9031 42.5 47.5 36.9031 47.5 30C47.5 29.1619 47.4137 28.3438 47.2569 27.5519Z" fill="#FBC02D"/>
<path d="M23.9413 24.1819L28.0482 27.1937C29.1594 24.4425 31.8507 22.5 35 22.5C36.9119 22.5 38.6513 23.2212 39.9757 24.3994L43.5113 20.8637C41.2788 18.7831 38.2925 17.5 35 17.5C30.1988 17.5 26.035 20.2106 23.9413 24.1819Z" fill="#E53935"/>
<path d="M35 42.5C38.2287 42.5 41.1625 41.2644 43.3806 39.255L39.5118 35.9813C38.2568 36.9319 36.6968 37.5 35 37.5C31.7487 37.5 28.9881 35.4269 27.9481 32.5338L23.8718 35.6744C25.9406 39.7225 30.1418 42.5 35 42.5Z" fill="#4CAF50"/>
<path d="M47.2569 27.5519L47.2469 27.5H46.25H35V32.5H42.0644C41.5694 33.8981 40.67 35.1038 39.51 35.9819L39.5119 35.9806L43.3806 39.2544C43.1069 39.5031 47.5 36.25 47.5 30C47.5 29.1619 47.4137 28.3438 47.2569 27.5519Z" fill="#1565C0"/>
<path d="M60.5673 23L63.9753 14.672H64.7913L68.1873 23H66.9633L64.1673 15.956H64.5873L61.7673 23H60.5673ZM62.1873 21.116V20.132H66.5673V21.116H62.1873ZM70.4668 23L67.8508 17.3H69.0508L71.1508 22.112H70.4548L72.5668 17.3H73.7188L71.1028 23H70.4668ZM76.841 23.12C76.321 23.12 75.849 22.992 75.425 22.736C75.001 22.472 74.665 22.116 74.417 21.668C74.177 21.22 74.057 20.716 74.057 20.156C74.057 19.596 74.177 19.092 74.417 18.644C74.665 18.196 74.997 17.84 75.413 17.576C75.837 17.312 76.313 17.18 76.841 17.18C77.273 17.18 77.657 17.272 77.993 17.456C78.337 17.632 78.613 17.88 78.821 18.2C79.029 18.512 79.145 18.876 79.169 19.292V21.008C79.145 21.416 79.029 21.78 78.821 22.1C78.621 22.42 78.349 22.672 78.005 22.856C77.669 23.032 77.281 23.12 76.841 23.12ZM77.021 22.1C77.557 22.1 77.989 21.92 78.317 21.56C78.645 21.192 78.809 20.724 78.809 20.156C78.809 19.764 78.733 19.424 78.581 19.136C78.437 18.84 78.229 18.612 77.957 18.452C77.685 18.284 77.369 18.2 77.009 18.2C76.649 18.2 76.329 18.284 76.049 18.452C75.777 18.62 75.561 18.852 75.401 19.148C75.249 19.436 75.173 19.768 75.173 20.144C75.173 20.528 75.249 20.868 75.401 21.164C75.561 21.452 75.781 21.68 76.061 21.848C76.341 22.016 76.661 22.1 77.021 22.1ZM78.737 23V21.464L78.941 20.072L78.737 18.692V17.3H79.829V23H78.737ZM81.4134 23V17.3H82.4934V23H81.4134ZM81.9534 16.16C81.7534 16.16 81.5894 16.096 81.4614 15.968C81.3334 15.832 81.2694 15.664 81.2694 15.464C81.2694 15.272 81.3334 15.112 81.4614 14.984C81.5894 14.848 81.7534 14.78 81.9534 14.78C82.1534 14.78 82.3174 14.848 82.4454 14.984C82.5734 15.112 82.6374 15.272 82.6374 15.464C82.6374 15.664 82.5734 15.832 82.4454 15.968C82.3174 16.096 82.1534 16.16 81.9534 16.16ZM84.085 23V14.432H85.165V23H84.085ZM89.1691 23.12C88.6491 23.12 88.1771 22.992 87.7531 22.736C87.3291 22.472 86.9931 22.116 86.7451 21.668C86.5051 21.22 86.3851 20.716 86.3851 20.156C86.3851 19.596 86.5051 19.092 86.7451 18.644C86.9931 18.196 87.3251 17.84 87.7411 17.576C88.1651 17.312 88.6411 17.18 89.1691 17.18C89.6011 17.18 89.9851 17.272 90.3211 17.456C90.6651 17.632 90.9411 17.88 91.1491 18.2C91.3571 18.512 91.4731 18.876 91.4971 19.292V21.008C91.4731 21.416 91.3571 21.78 91.1491 22.1C90.9491 22.42 90.6771 22.672 90.3331 22.856C89.9971 23.032 89.6091 23.12 89.1691 23.12ZM89.3491 22.1C89.8851 22.1 90.3171 21.92 90.6451 21.56C90.9731 21.192 91.1371 20.724 91.1371 20.156C91.1371 19.764 91.0611 19.424 90.9091 19.136C90.7651 18.84 90.5571 18.612 90.2851 18.452C90.0131 18.284 89.6971 18.2 89.3371 18.2C88.9771 18.2 88.6571 18.284 88.3771 18.452C88.1051 18.62 87.8891 18.852 87.7291 19.148C87.5771 19.436 87.5011 19.768 87.5011 20.144C87.5011 20.528 87.5771 20.868 87.7291 21.164C87.8891 21.452 88.1091 21.68 88.3891 21.848C88.6691 22.016 88.9891 22.1 89.3491 22.1ZM91.0651 23V21.464L91.2691 20.072L91.0651 18.692V17.3H92.1571V23H91.0651ZM96.7295 23.12C96.2975 23.12 95.9055 23.032 95.5535 22.856C95.2095 22.672 94.9335 22.42 94.7255 22.1C94.5175 21.78 94.4015 21.416 94.3775 21.008V19.292C94.4015 18.876 94.5175 18.512 94.7255 18.2C94.9415 17.88 95.2215 17.632 95.5655 17.456C95.9175 17.272 96.3055 17.18 96.7295 17.18C97.2495 17.18 97.7175 17.312 98.1335 17.576C98.5575 17.84 98.8895 18.196 99.1295 18.644C99.3695 19.092 99.4895 19.596 99.4895 20.156C99.4895 20.716 99.3695 21.22 99.1295 21.668C98.8895 22.116 98.5575 22.472 98.1335 22.736C97.7175 22.992 97.2495 23.12 96.7295 23.12ZM93.7295 23V14.432H94.8095V18.692L94.6055 20.072L94.8095 21.464V23H93.7295ZM96.5495 22.1C96.9095 22.1 97.2255 22.016 97.4975 21.848C97.7695 21.68 97.9855 21.452 98.1455 21.164C98.3055 20.868 98.3855 20.528 98.3855 20.144C98.3855 19.768 98.3055 19.432 98.1455 19.136C97.9855 18.84 97.7695 18.612 97.4975 18.452C97.2255 18.284 96.9135 18.2 96.5615 18.2C96.2015 18.2 95.8855 18.284 95.6135 18.452C95.3415 18.612 95.1295 18.84 94.9775 19.136C94.8255 19.432 94.7495 19.772 94.7495 20.156C94.7495 20.532 94.8215 20.868 94.9655 21.164C95.1175 21.452 95.3295 21.68 95.6015 21.848C95.8815 22.016 96.1975 22.1 96.5495 22.1ZM100.714 23V14.432H101.794V23H100.714ZM106.014 23.12C105.446 23.12 104.934 22.992 104.478 22.736C104.022 22.472 103.662 22.116 103.398 21.668C103.134 21.22 103.002 20.712 103.002 20.144C103.002 19.584 103.13 19.08 103.386 18.632C103.65 18.184 104.002 17.832 104.442 17.576C104.89 17.312 105.39 17.18 105.942 17.18C106.47 17.18 106.934 17.3 107.334 17.54C107.742 17.78 108.058 18.112 108.282 18.536C108.514 18.96 108.63 19.44 108.63 19.976C108.63 20.056 108.626 20.144 108.618 20.24C108.61 20.328 108.594 20.432 108.57 20.552H103.758V19.652H107.994L107.598 20C107.598 19.616 107.53 19.292 107.394 19.028C107.258 18.756 107.066 18.548 106.818 18.404C106.57 18.252 106.27 18.176 105.918 18.176C105.55 18.176 105.226 18.256 104.946 18.416C104.666 18.576 104.45 18.8 104.298 19.088C104.146 19.376 104.07 19.716 104.07 20.108C104.07 20.508 104.15 20.86 104.31 21.164C104.47 21.46 104.698 21.692 104.994 21.86C105.29 22.02 105.63 22.1 106.014 22.1C106.334 22.1 106.626 22.044 106.89 21.932C107.162 21.82 107.394 21.652 107.586 21.428L108.282 22.136C108.01 22.456 107.674 22.7 107.274 22.868C106.882 23.036 106.462 23.12 106.014 23.12ZM114.908 23.12C114.348 23.12 113.844 22.988 113.396 22.724C112.948 22.46 112.592 22.104 112.328 21.656C112.064 21.2 111.932 20.692 111.932 20.132C111.932 19.58 112.064 19.084 112.328 18.644C112.592 18.196 112.948 17.84 113.396 17.576C113.844 17.312 114.348 17.18 114.908 17.18C115.46 17.18 115.96 17.312 116.408 17.576C116.864 17.832 117.224 18.184 117.488 18.632C117.752 19.08 117.884 19.58 117.884 20.132C117.884 20.692 117.752 21.2 117.488 21.656C117.224 22.104 116.864 22.46 116.408 22.724C115.96 22.988 115.46 23.12 114.908 23.12ZM114.908 22.076C115.268 22.076 115.588 21.992 115.868 21.824C116.148 21.656 116.368 21.428 116.528 21.14C116.688 20.844 116.768 20.508 116.768 20.132C116.768 19.764 116.684 19.436 116.516 19.148C116.356 18.86 116.136 18.636 115.856 18.476C115.584 18.308 115.268 18.224 114.908 18.224C114.548 18.224 114.228 18.308 113.948 18.476C113.668 18.636 113.448 18.86 113.288 19.148C113.128 19.436 113.048 19.764 113.048 20.132C113.048 20.508 113.128 20.844 113.288 21.14C113.448 21.428 113.668 21.656 113.948 21.824C114.228 21.992 114.548 22.076 114.908 22.076ZM123.133 23V19.676C123.133 19.244 122.997 18.888 122.725 18.608C122.453 18.328 122.101 18.188 121.669 18.188C121.381 18.188 121.125 18.252 120.901 18.38C120.677 18.508 120.501 18.684 120.373 18.908C120.245 19.132 120.181 19.388 120.181 19.676L119.737 19.424C119.737 18.992 119.833 18.608 120.025 18.272C120.217 17.936 120.485 17.672 120.829 17.48C121.173 17.28 121.561 17.18 121.993 17.18C122.425 17.18 122.805 17.288 123.133 17.504C123.469 17.72 123.733 18.004 123.925 18.356C124.117 18.7 124.213 19.068 124.213 19.46V23H123.133ZM119.101 23V17.3H120.181V23H119.101ZM129.047 23V14.912H130.127V23H129.047ZM127.643 18.284V17.3H131.531V18.284H127.643ZM136.621 23V19.676C136.621 19.244 136.485 18.888 136.213 18.608C135.941 18.328 135.589 18.188 135.157 18.188C134.869 18.188 134.613 18.252 134.389 18.38C134.165 18.508 133.989 18.684 133.861 18.908C133.733 19.132 133.669 19.388 133.669 19.676L133.225 19.424C133.225 18.992 133.321 18.608 133.513 18.272C133.705 17.936 133.973 17.672 134.317 17.48C134.661 17.28 135.049 17.18 135.481 17.18C135.913 17.18 136.293 17.276 136.621 17.468C136.957 17.66 137.221 17.928 137.413 18.272C137.605 18.616 137.701 19.012 137.701 19.46V23H136.621ZM132.589 23V14.432H133.669V23H132.589ZM141.803 23.12C141.235 23.12 140.723 22.992 140.267 22.736C139.811 22.472 139.451 22.116 139.187 21.668C138.923 21.22 138.791 20.712 138.791 20.144C138.791 19.584 138.919 19.08 139.175 18.632C139.439 18.184 139.791 17.832 140.231 17.576C140.679 17.312 141.179 17.18 141.731 17.18C142.259 17.18 142.723 17.3 143.123 17.54C143.531 17.78 143.847 18.112 144.071 18.536C144.303 18.96 144.419 19.44 144.419 19.976C144.419 20.056 144.415 20.144 144.407 20.24C144.399 20.328 144.383 20.432 144.359 20.552H139.547V19.652H143.783L143.387 20C143.387 19.616 143.319 19.292 143.183 19.028C143.047 18.756 142.855 18.548 142.607 18.404C142.359 18.252 142.059 18.176 141.707 18.176C141.339 18.176 141.015 18.256 140.735 18.416C140.455 18.576 140.239 18.8 140.087 19.088C139.935 19.376 139.859 19.716 139.859 20.108C139.859 20.508 139.939 20.86 140.099 21.164C140.259 21.46 140.487 21.692 140.783 21.86C141.079 22.02 141.419 22.1 141.803 22.1C142.123 22.1 142.415 22.044 142.679 21.932C142.951 21.82 143.183 21.652 143.375 21.428L144.071 22.136C143.799 22.456 143.463 22.7 143.063 22.868C142.671 23.036 142.251 23.12 141.803 23.12Z" fill="#121212"/>
<path d="M67.4327 44.18C66.5327 44.18 65.6867 44.018 64.8947 43.694C64.1147 43.358 63.4247 42.89 62.8247 42.29C62.2367 41.69 61.7747 41 61.4387 40.22C61.1147 39.428 60.9527 38.576 60.9527 37.664C60.9527 36.74 61.1207 35.888 61.4567 35.108C61.7927 34.316 62.2607 33.626 62.8607 33.038C63.4607 32.438 64.1627 31.976 64.9667 31.652C65.7707 31.316 66.6407 31.148 67.5767 31.148C68.6207 31.148 69.5807 31.346 70.4567 31.742C71.3327 32.126 72.0587 32.672 72.6347 33.38L70.9787 35.036C70.5827 34.52 70.0907 34.124 69.5027 33.848C68.9147 33.572 68.2667 33.434 67.5587 33.434C66.7547 33.434 66.0407 33.614 65.4167 33.974C64.8047 34.322 64.3247 34.814 63.9767 35.45C63.6287 36.074 63.4547 36.806 63.4547 37.646C63.4547 38.486 63.6227 39.23 63.9587 39.878C64.3067 40.514 64.7747 41.012 65.3627 41.372C65.9627 41.732 66.6467 41.912 67.4147 41.912C68.2067 41.912 68.8847 41.768 69.4487 41.48C70.0127 41.18 70.4447 40.748 70.7447 40.184C71.0447 39.608 71.1947 38.906 71.1947 38.078L72.7967 39.176L67.2707 39.122V36.998H73.7147V37.34C73.7147 38.852 73.4447 40.118 72.9047 41.138C72.3647 42.146 71.6207 42.908 70.6727 43.424C69.7367 43.928 68.6567 44.18 67.4327 44.18ZM79.2465 44.18C78.3705 44.18 77.5785 43.982 76.8705 43.586C76.1745 43.178 75.6165 42.632 75.1965 41.948C74.7885 41.252 74.5845 40.478 74.5845 39.626C74.5845 38.774 74.7885 38.012 75.1965 37.34C75.6045 36.656 76.1625 36.116 76.8705 35.72C77.5785 35.312 78.3645 35.108 79.2285 35.108C80.1165 35.108 80.9085 35.312 81.6045 35.72C82.3125 36.116 82.8705 36.656 83.2785 37.34C83.6865 38.012 83.8905 38.774 83.8905 39.626C83.8905 40.478 83.6865 41.252 83.2785 41.948C82.8705 42.632 82.3125 43.178 81.6045 43.586C80.9085 43.982 80.1225 44.18 79.2465 44.18ZM79.2285 41.984C79.6725 41.984 80.0625 41.888 80.3985 41.696C80.7465 41.492 81.0105 41.216 81.1905 40.868C81.3825 40.508 81.4785 40.1 81.4785 39.644C81.4785 39.188 81.3825 38.786 81.1905 38.438C80.9985 38.09 80.7345 37.82 80.3985 37.628C80.0625 37.424 79.6725 37.322 79.2285 37.322C78.7965 37.322 78.4125 37.424 78.0765 37.628C77.7405 37.82 77.4765 38.09 77.2845 38.438C77.0925 38.786 76.9965 39.188 76.9965 39.644C76.9965 40.1 77.0925 40.508 77.2845 40.868C77.4765 41.216 77.7405 41.492 78.0765 41.696C78.4125 41.888 78.7965 41.984 79.2285 41.984ZM89.3145 44.18C88.4385 44.18 87.6465 43.982 86.9385 43.586C86.2425 43.178 85.6845 42.632 85.2645 41.948C84.8565 41.252 84.6525 40.478 84.6525 39.626C84.6525 38.774 84.8565 38.012 85.2645 37.34C85.6725 36.656 86.2305 36.116 86.9385 35.72C87.6465 35.312 88.4325 35.108 89.2965 35.108C90.1845 35.108 90.9765 35.312 91.6725 35.72C92.3805 36.116 92.9385 36.656 93.3465 37.34C93.7545 38.012 93.9585 38.774 93.9585 39.626C93.9585 40.478 93.7545 41.252 93.3465 41.948C92.9385 42.632 92.3805 43.178 91.6725 43.586C90.9765 43.982 90.1905 44.18 89.3145 44.18ZM89.2965 41.984C89.7405 41.984 90.1305 41.888 90.4665 41.696C90.8145 41.492 91.0785 41.216 91.2585 40.868C91.4505 40.508 91.5465 40.1 91.5465 39.644C91.5465 39.188 91.4505 38.786 91.2585 38.438C91.0665 38.09 90.8025 37.82 90.4665 37.628C90.1305 37.424 89.7405 37.322 89.2965 37.322C88.8645 37.322 88.4805 37.424 88.1445 37.628C87.8085 37.82 87.5445 38.09 87.3525 38.438C87.1605 38.786 87.0645 39.188 87.0645 39.644C87.0645 40.1 87.1605 40.508 87.3525 40.868C87.5445 41.216 87.8085 41.492 88.1445 41.696C88.4805 41.888 88.8645 41.984 89.2965 41.984ZM98.9326 47.852C98.0086 47.852 97.1926 47.684 96.4846 47.348C95.7766 47.024 95.2126 46.562 94.7926 45.962L96.2866 44.468C96.6226 44.864 96.9946 45.164 97.4026 45.368C97.8226 45.584 98.3266 45.692 98.9146 45.692C99.6466 45.692 100.223 45.506 100.643 45.134C101.075 44.762 101.291 44.246 101.291 43.586V41.408L101.687 39.5L101.309 37.592V35.306H103.649V43.55C103.649 44.414 103.445 45.164 103.037 45.8C102.641 46.448 102.089 46.952 101.381 47.312C100.673 47.672 99.8566 47.852 98.9326 47.852ZM98.8246 43.766C98.0446 43.766 97.3426 43.58 96.7186 43.208C96.0946 42.824 95.6026 42.302 95.2426 41.642C94.8946 40.982 94.7206 40.244 94.7206 39.428C94.7206 38.612 94.8946 37.88 95.2426 37.232C95.6026 36.584 96.0946 36.074 96.7186 35.702C97.3426 35.318 98.0446 35.126 98.8246 35.126C99.4726 35.126 100.043 35.252 100.535 35.504C101.039 35.756 101.435 36.104 101.723 36.548C102.011 36.98 102.167 37.49 102.191 38.078V40.814C102.167 41.39 102.005 41.906 101.705 42.362C101.417 42.806 101.021 43.154 100.517 43.406C100.025 43.646 99.4606 43.766 98.8246 43.766ZM99.2926 41.624C99.7246 41.624 100.097 41.534 100.409 41.354C100.733 41.162 100.985 40.904 101.165 40.58C101.345 40.244 101.435 39.866 101.435 39.446C101.435 39.014 101.345 38.636 101.165 38.312C100.985 37.988 100.733 37.736 100.409 37.556C100.097 37.364 99.7246 37.268 99.2926 37.268C98.8606 37.268 98.4826 37.364 98.1586 37.556C97.8346 37.736 97.5826 37.994 97.4026 38.33C97.2226 38.654 97.1326 39.026 97.1326 39.446C97.1326 39.854 97.2226 40.226 97.4026 40.562C97.5826 40.886 97.8346 41.144 98.1586 41.336C98.4826 41.528 98.8606 41.624 99.2926 41.624ZM105.54 44V30.986H107.898V44H105.54ZM113.966 44.18C113.054 44.18 112.244 43.988 111.536 43.604C110.828 43.208 110.264 42.668 109.844 41.984C109.436 41.3 109.232 40.52 109.232 39.644C109.232 38.78 109.43 38.012 109.826 37.34C110.234 36.656 110.786 36.116 111.482 35.72C112.178 35.312 112.952 35.108 113.804 35.108C114.644 35.108 115.382 35.3 116.018 35.684C116.666 36.056 117.17 36.572 117.53 37.232C117.902 37.88 118.088 38.618 118.088 39.446C118.088 39.602 118.076 39.764 118.052 39.932C118.04 40.088 118.01 40.268 117.962 40.472L110.654 40.49V38.726L116.864 38.708L115.91 39.446C115.886 38.93 115.79 38.498 115.622 38.15C115.466 37.802 115.232 37.538 114.92 37.358C114.62 37.166 114.248 37.07 113.804 37.07C113.336 37.07 112.928 37.178 112.58 37.394C112.232 37.598 111.962 37.892 111.77 38.276C111.59 38.648 111.5 39.092 111.5 39.608C111.5 40.136 111.596 40.598 111.788 40.994C111.992 41.378 112.28 41.678 112.652 41.894C113.024 42.098 113.456 42.2 113.948 42.2C114.392 42.2 114.794 42.128 115.154 41.984C115.514 41.828 115.826 41.6 116.09 41.3L117.476 42.686C117.056 43.178 116.54 43.55 115.928 43.802C115.328 44.054 114.674 44.18 113.966 44.18ZM124.754 39.302V37.304H127.688C128.072 37.304 128.42 37.226 128.732 37.07C129.044 36.914 129.29 36.692 129.47 36.404C129.65 36.104 129.74 35.744 129.74 35.324C129.74 34.916 129.65 34.562 129.47 34.262C129.29 33.962 129.044 33.734 128.732 33.578C128.42 33.422 128.072 33.344 127.688 33.344H124.754V31.346H127.94C128.744 31.346 129.464 31.508 130.1 31.832C130.748 32.156 131.258 32.618 131.63 33.218C132.002 33.806 132.188 34.508 132.188 35.324C132.188 36.14 132.002 36.848 131.63 37.448C131.258 38.036 130.748 38.492 130.1 38.816C129.464 39.14 128.744 39.302 127.94 39.302H124.754ZM122.954 44V31.346H125.402V44H122.954ZM133.613 44V30.986H135.971V44H133.613ZM141.517 44.18C140.725 44.18 140.011 43.982 139.375 43.586C138.739 43.19 138.241 42.65 137.881 41.966C137.521 41.282 137.341 40.514 137.341 39.662C137.341 38.798 137.521 38.024 137.881 37.34C138.241 36.656 138.739 36.116 139.375 35.72C140.011 35.324 140.725 35.126 141.517 35.126C142.141 35.126 142.699 35.252 143.191 35.504C143.683 35.756 144.073 36.11 144.361 36.566C144.661 37.01 144.823 37.514 144.847 38.078V41.21C144.823 41.786 144.661 42.296 144.361 42.74C144.073 43.184 143.683 43.538 143.191 43.802C142.699 44.054 142.141 44.18 141.517 44.18ZM141.949 42.002C142.609 42.002 143.143 41.786 143.551 41.354C143.959 40.91 144.163 40.34 144.163 39.644C144.163 39.188 144.067 38.786 143.875 38.438C143.695 38.078 143.437 37.802 143.101 37.61C142.777 37.406 142.393 37.304 141.949 37.304C141.517 37.304 141.133 37.406 140.797 37.61C140.473 37.802 140.215 38.078 140.023 38.438C139.843 38.786 139.753 39.188 139.753 39.644C139.753 40.112 139.843 40.526 140.023 40.886C140.215 41.234 140.473 41.51 140.797 41.714C141.133 41.906 141.517 42.002 141.949 42.002ZM144.037 44V41.66L144.415 39.536L144.037 37.448V35.306H146.377V44H144.037ZM151.019 44.072L147.383 35.306H149.939L152.351 42.002H151.487L153.989 35.306H156.563L152.693 44.072H151.019ZM148.607 47.636L151.253 42.038L152.693 44.072L151.109 47.636H148.607Z" fill="#121212"/>
</svg>
