<svg width="187" height="60" viewBox="0 0 187 60" fill="none" xmlns="http://www.w3.org/2000/svg">
<path d="M0 15C0 6.71573 6.71573 0 15 0H172C180.284 0 187 6.71573 187 15V45C187 53.2843 180.284 60 172 60H15C6.71573 60 0 53.2843 0 45V15Z" fill="white"/>
<g clip-path="url(#clip0_1240_58776)">
<path d="M41.025 15C39.3234 15.1148 37.5023 16.1273 36.375 17.4938C35.3883 18.6961 34.5609 20.4609 34.875 22.2938C34.5937 22.207 34.3383 22.1977 34.0312 22.0875C33.1945 21.7898 32.2383 21.4688 31.05 21.4688C28.6898 21.4688 26.2734 22.8727 24.75 25.2188C22.5328 28.6266 22.9781 34.6242 26.3437 39.75C26.9367 40.65 27.6281 41.632 28.4812 42.4125C29.3344 43.193 30.3656 43.7883 31.575 43.8C32.6086 43.8117 33.3281 43.4672 33.975 43.1813C34.6219 42.8953 35.2242 42.6422 36.3562 42.6375C36.3633 42.6375 36.368 42.6375 36.375 42.6375C37.5023 42.6281 38.0859 42.8766 38.7187 43.1625C39.3516 43.4484 40.0641 43.8094 41.1 43.8C42.3328 43.7906 43.3805 43.1156 44.25 42.2813C45.1195 41.4469 45.8344 40.4227 46.425 39.525C47.2711 38.2359 47.6109 37.5328 48.2625 36.0938C48.3305 35.9438 48.3328 35.7703 48.2672 35.618C48.2039 35.4656 48.0797 35.3461 47.925 35.2875C45.7922 34.4813 44.5758 32.5945 44.4 30.6C44.2242 28.6055 45.068 26.5523 47.1937 25.3875C47.3508 25.3031 47.4609 25.1555 47.4984 24.982C47.5336 24.8086 47.4914 24.6258 47.3812 24.4875C45.8555 22.5914 43.7086 21.4688 41.6062 21.4688C40.2656 21.4688 39.2812 21.7852 38.475 22.0875C38.3414 22.1391 38.243 22.1344 38.1187 22.1813C38.9367 21.75 39.6586 21.1523 40.2 20.4563C41.1844 19.193 41.9437 17.3953 41.6625 15.5063C41.6156 15.1969 41.3367 14.9766 41.025 15ZM40.3875 16.425C40.3477 17.6367 39.9328 18.8227 39.2437 19.7063C38.5219 20.6344 37.3078 21.2766 36.1312 21.4688C36.1523 20.3039 36.6117 19.0969 37.3125 18.2438C38.0484 17.3531 39.2672 16.7109 40.3875 16.425ZM31.05 22.6688C32.018 22.6688 32.7937 22.9195 33.6187 23.2125C34.4437 23.5055 35.3133 23.85 36.3375 23.85C37.3383 23.85 38.1305 23.5031 38.9062 23.2125C39.682 22.9219 40.4555 22.6688 41.6062 22.6688C43.1086 22.6688 44.7328 23.4492 46.0125 24.8063C43.9641 26.2523 43.0055 28.507 43.2 30.6938C43.3945 32.9039 44.7258 35.0016 46.9125 36.0938C46.4391 37.125 46.1273 37.807 45.4312 38.8688C44.857 39.743 44.175 40.6992 43.425 41.4188C42.675 42.1383 41.8805 42.593 41.0812 42.6C40.3102 42.607 39.8719 42.3773 39.2062 42.075C38.5406 41.7727 37.6805 41.4258 36.3562 41.4375C35.0344 41.4445 34.1625 41.7773 33.4875 42.075C32.8125 42.3727 32.3695 42.607 31.5937 42.6C30.7734 42.593 30.0117 42.1945 29.2875 41.5313C28.5633 40.868 27.9094 39.9633 27.3375 39.0938C24.1875 34.2938 23.9344 28.6547 25.7437 25.875C27.0703 23.8336 29.1773 22.6688 31.05 22.6688Z" fill="url(#paint0_linear_1240_58776)"/>
</g>
<path d="M61.5673 23L64.9753 14.672H65.7913L69.1873 23H67.9633L65.1673 15.956H65.5873L62.7673 23H61.5673ZM63.1873 21.116V20.132H67.5673V21.116H63.1873ZM71.4668 23L68.8508 17.3H70.0508L72.1508 22.112H71.4548L73.5668 17.3H74.7188L72.1028 23H71.4668ZM77.841 23.12C77.321 23.12 76.849 22.992 76.425 22.736C76.001 22.472 75.665 22.116 75.417 21.668C75.177 21.22 75.057 20.716 75.057 20.156C75.057 19.596 75.177 19.092 75.417 18.644C75.665 18.196 75.997 17.84 76.413 17.576C76.837 17.312 77.313 17.18 77.841 17.18C78.273 17.18 78.657 17.272 78.993 17.456C79.337 17.632 79.613 17.88 79.821 18.2C80.029 18.512 80.145 18.876 80.169 19.292V21.008C80.145 21.416 80.029 21.78 79.821 22.1C79.621 22.42 79.349 22.672 79.005 22.856C78.669 23.032 78.281 23.12 77.841 23.12ZM78.021 22.1C78.557 22.1 78.989 21.92 79.317 21.56C79.645 21.192 79.809 20.724 79.809 20.156C79.809 19.764 79.733 19.424 79.581 19.136C79.437 18.84 79.229 18.612 78.957 18.452C78.685 18.284 78.369 18.2 78.009 18.2C77.649 18.2 77.329 18.284 77.049 18.452C76.777 18.62 76.561 18.852 76.401 19.148C76.249 19.436 76.173 19.768 76.173 20.144C76.173 20.528 76.249 20.868 76.401 21.164C76.561 21.452 76.781 21.68 77.061 21.848C77.341 22.016 77.661 22.1 78.021 22.1ZM79.737 23V21.464L79.941 20.072L79.737 18.692V17.3H80.829V23H79.737ZM82.4134 23V17.3H83.4934V23H82.4134ZM82.9534 16.16C82.7534 16.16 82.5894 16.096 82.4614 15.968C82.3334 15.832 82.2694 15.664 82.2694 15.464C82.2694 15.272 82.3334 15.112 82.4614 14.984C82.5894 14.848 82.7534 14.78 82.9534 14.78C83.1534 14.78 83.3174 14.848 83.4454 14.984C83.5734 15.112 83.6374 15.272 83.6374 15.464C83.6374 15.664 83.5734 15.832 83.4454 15.968C83.3174 16.096 83.1534 16.16 82.9534 16.16ZM85.085 23V14.432H86.165V23H85.085ZM90.1691 23.12C89.6491 23.12 89.1771 22.992 88.7531 22.736C88.3291 22.472 87.9931 22.116 87.7451 21.668C87.5051 21.22 87.3851 20.716 87.3851 20.156C87.3851 19.596 87.5051 19.092 87.7451 18.644C87.9931 18.196 88.3251 17.84 88.7411 17.576C89.1651 17.312 89.6411 17.18 90.1691 17.18C90.6011 17.18 90.9851 17.272 91.3211 17.456C91.6651 17.632 91.9411 17.88 92.1491 18.2C92.3571 18.512 92.4731 18.876 92.4971 19.292V21.008C92.4731 21.416 92.3571 21.78 92.1491 22.1C91.9491 22.42 91.6771 22.672 91.3331 22.856C90.9971 23.032 90.6091 23.12 90.1691 23.12ZM90.3491 22.1C90.8851 22.1 91.3171 21.92 91.6451 21.56C91.9731 21.192 92.1371 20.724 92.1371 20.156C92.1371 19.764 92.0611 19.424 91.9091 19.136C91.7651 18.84 91.5571 18.612 91.2851 18.452C91.0131 18.284 90.6971 18.2 90.3371 18.2C89.9771 18.2 89.6571 18.284 89.3771 18.452C89.1051 18.62 88.8891 18.852 88.7291 19.148C88.5771 19.436 88.5011 19.768 88.5011 20.144C88.5011 20.528 88.5771 20.868 88.7291 21.164C88.8891 21.452 89.1091 21.68 89.3891 21.848C89.6691 22.016 89.9891 22.1 90.3491 22.1ZM92.0651 23V21.464L92.2691 20.072L92.0651 18.692V17.3H93.1571V23H92.0651ZM97.7295 23.12C97.2975 23.12 96.9055 23.032 96.5535 22.856C96.2095 22.672 95.9335 22.42 95.7255 22.1C95.5175 21.78 95.4015 21.416 95.3775 21.008V19.292C95.4015 18.876 95.5175 18.512 95.7255 18.2C95.9415 17.88 96.2215 17.632 96.5655 17.456C96.9175 17.272 97.3055 17.18 97.7295 17.18C98.2495 17.18 98.7175 17.312 99.1335 17.576C99.5575 17.84 99.8895 18.196 100.13 18.644C100.37 19.092 100.49 19.596 100.49 20.156C100.49 20.716 100.37 21.22 100.13 21.668C99.8895 22.116 99.5575 22.472 99.1335 22.736C98.7175 22.992 98.2495 23.12 97.7295 23.12ZM94.7295 23V14.432H95.8095V18.692L95.6055 20.072L95.8095 21.464V23H94.7295ZM97.5495 22.1C97.9095 22.1 98.2255 22.016 98.4975 21.848C98.7695 21.68 98.9855 21.452 99.1455 21.164C99.3055 20.868 99.3855 20.528 99.3855 20.144C99.3855 19.768 99.3055 19.432 99.1455 19.136C98.9855 18.84 98.7695 18.612 98.4975 18.452C98.2255 18.284 97.9135 18.2 97.5615 18.2C97.2015 18.2 96.8855 18.284 96.6135 18.452C96.3415 18.612 96.1295 18.84 95.9775 19.136C95.8255 19.432 95.7495 19.772 95.7495 20.156C95.7495 20.532 95.8215 20.868 95.9655 21.164C96.1175 21.452 96.3295 21.68 96.6015 21.848C96.8815 22.016 97.1975 22.1 97.5495 22.1ZM101.714 23V14.432H102.794V23H101.714ZM107.014 23.12C106.446 23.12 105.934 22.992 105.478 22.736C105.022 22.472 104.662 22.116 104.398 21.668C104.134 21.22 104.002 20.712 104.002 20.144C104.002 19.584 104.13 19.08 104.386 18.632C104.65 18.184 105.002 17.832 105.442 17.576C105.89 17.312 106.39 17.18 106.942 17.18C107.47 17.18 107.934 17.3 108.334 17.54C108.742 17.78 109.058 18.112 109.282 18.536C109.514 18.96 109.63 19.44 109.63 19.976C109.63 20.056 109.626 20.144 109.618 20.24C109.61 20.328 109.594 20.432 109.57 20.552H104.758V19.652H108.994L108.598 20C108.598 19.616 108.53 19.292 108.394 19.028C108.258 18.756 108.066 18.548 107.818 18.404C107.57 18.252 107.27 18.176 106.918 18.176C106.55 18.176 106.226 18.256 105.946 18.416C105.666 18.576 105.45 18.8 105.298 19.088C105.146 19.376 105.07 19.716 105.07 20.108C105.07 20.508 105.15 20.86 105.31 21.164C105.47 21.46 105.698 21.692 105.994 21.86C106.29 22.02 106.63 22.1 107.014 22.1C107.334 22.1 107.626 22.044 107.89 21.932C108.162 21.82 108.394 21.652 108.586 21.428L109.282 22.136C109.01 22.456 108.674 22.7 108.274 22.868C107.882 23.036 107.462 23.12 107.014 23.12ZM115.908 23.12C115.348 23.12 114.844 22.988 114.396 22.724C113.948 22.46 113.592 22.104 113.328 21.656C113.064 21.2 112.932 20.692 112.932 20.132C112.932 19.58 113.064 19.084 113.328 18.644C113.592 18.196 113.948 17.84 114.396 17.576C114.844 17.312 115.348 17.18 115.908 17.18C116.46 17.18 116.96 17.312 117.408 17.576C117.864 17.832 118.224 18.184 118.488 18.632C118.752 19.08 118.884 19.58 118.884 20.132C118.884 20.692 118.752 21.2 118.488 21.656C118.224 22.104 117.864 22.46 117.408 22.724C116.96 22.988 116.46 23.12 115.908 23.12ZM115.908 22.076C116.268 22.076 116.588 21.992 116.868 21.824C117.148 21.656 117.368 21.428 117.528 21.14C117.688 20.844 117.768 20.508 117.768 20.132C117.768 19.764 117.684 19.436 117.516 19.148C117.356 18.86 117.136 18.636 116.856 18.476C116.584 18.308 116.268 18.224 115.908 18.224C115.548 18.224 115.228 18.308 114.948 18.476C114.668 18.636 114.448 18.86 114.288 19.148C114.128 19.436 114.048 19.764 114.048 20.132C114.048 20.508 114.128 20.844 114.288 21.14C114.448 21.428 114.668 21.656 114.948 21.824C115.228 21.992 115.548 22.076 115.908 22.076ZM124.133 23V19.676C124.133 19.244 123.997 18.888 123.725 18.608C123.453 18.328 123.101 18.188 122.669 18.188C122.381 18.188 122.125 18.252 121.901 18.38C121.677 18.508 121.501 18.684 121.373 18.908C121.245 19.132 121.181 19.388 121.181 19.676L120.737 19.424C120.737 18.992 120.833 18.608 121.025 18.272C121.217 17.936 121.485 17.672 121.829 17.48C122.173 17.28 122.561 17.18 122.993 17.18C123.425 17.18 123.805 17.288 124.133 17.504C124.469 17.72 124.733 18.004 124.925 18.356C125.117 18.7 125.213 19.068 125.213 19.46V23H124.133ZM120.101 23V17.3H121.181V23H120.101ZM130.047 23V14.912H131.127V23H130.047ZM128.643 18.284V17.3H132.531V18.284H128.643ZM137.621 23V19.676C137.621 19.244 137.485 18.888 137.213 18.608C136.941 18.328 136.589 18.188 136.157 18.188C135.869 18.188 135.613 18.252 135.389 18.38C135.165 18.508 134.989 18.684 134.861 18.908C134.733 19.132 134.669 19.388 134.669 19.676L134.225 19.424C134.225 18.992 134.321 18.608 134.513 18.272C134.705 17.936 134.973 17.672 135.317 17.48C135.661 17.28 136.049 17.18 136.481 17.18C136.913 17.18 137.293 17.276 137.621 17.468C137.957 17.66 138.221 17.928 138.413 18.272C138.605 18.616 138.701 19.012 138.701 19.46V23H137.621ZM133.589 23V14.432H134.669V23H133.589ZM142.803 23.12C142.235 23.12 141.723 22.992 141.267 22.736C140.811 22.472 140.451 22.116 140.187 21.668C139.923 21.22 139.791 20.712 139.791 20.144C139.791 19.584 139.919 19.08 140.175 18.632C140.439 18.184 140.791 17.832 141.231 17.576C141.679 17.312 142.179 17.18 142.731 17.18C143.259 17.18 143.723 17.3 144.123 17.54C144.531 17.78 144.847 18.112 145.071 18.536C145.303 18.96 145.419 19.44 145.419 19.976C145.419 20.056 145.415 20.144 145.407 20.24C145.399 20.328 145.383 20.432 145.359 20.552H140.547V19.652H144.783L144.387 20C144.387 19.616 144.319 19.292 144.183 19.028C144.047 18.756 143.855 18.548 143.607 18.404C143.359 18.252 143.059 18.176 142.707 18.176C142.339 18.176 142.015 18.256 141.735 18.416C141.455 18.576 141.239 18.8 141.087 19.088C140.935 19.376 140.859 19.716 140.859 20.108C140.859 20.508 140.939 20.86 141.099 21.164C141.259 21.46 141.487 21.692 141.783 21.86C142.079 22.02 142.419 22.1 142.803 22.1C143.123 22.1 143.415 22.044 143.679 21.932C143.951 21.82 144.183 21.652 144.375 21.428L145.071 22.136C144.799 22.456 144.463 22.7 144.063 22.868C143.671 23.036 143.251 23.12 142.803 23.12Z" fill="#121212"/>
<path d="M61.7629 44L66.8569 31.346H68.8549L73.9309 44H71.3209L67.3969 33.614H68.2969L64.3189 44H61.7629ZM64.4629 41.642V39.59H71.2669V41.642H64.4629ZM79.9581 44.18C79.3341 44.18 78.7701 44.054 78.2661 43.802C77.7621 43.538 77.3601 43.184 77.0601 42.74C76.7601 42.296 76.5981 41.786 76.5741 41.21V38.132C76.5981 37.556 76.7601 37.046 77.0601 36.602C77.3721 36.146 77.7741 35.786 78.2661 35.522C78.7701 35.258 79.3341 35.126 79.9581 35.126C80.7621 35.126 81.4821 35.324 82.1181 35.72C82.7541 36.116 83.2521 36.656 83.6121 37.34C83.9841 38.024 84.1701 38.798 84.1701 39.662C84.1701 40.514 83.9841 41.282 83.6121 41.966C83.2521 42.65 82.7541 43.19 82.1181 43.586C81.4821 43.982 80.7621 44.18 79.9581 44.18ZM75.1341 47.636V35.306H77.4921V37.592L77.0961 39.698L77.4741 41.804V47.636H75.1341ZM79.5441 42.002C79.9761 42.002 80.3601 41.906 80.6961 41.714C81.0321 41.51 81.2901 41.234 81.4701 40.886C81.6621 40.526 81.7581 40.112 81.7581 39.644C81.7581 39.188 81.6621 38.786 81.4701 38.438C81.2901 38.078 81.0321 37.802 80.6961 37.61C80.3601 37.406 79.9761 37.304 79.5441 37.304C79.1241 37.304 78.7461 37.406 78.4101 37.61C78.0741 37.802 77.8101 38.078 77.6181 38.438C77.4381 38.786 77.3481 39.188 77.3481 39.644C77.3481 40.112 77.4381 40.526 77.6181 40.886C77.8101 41.234 78.0681 41.51 78.3921 41.714C78.7281 41.906 79.1121 42.002 79.5441 42.002ZM90.3601 44.18C89.7361 44.18 89.1721 44.054 88.6681 43.802C88.1641 43.538 87.7621 43.184 87.4621 42.74C87.1621 42.296 87.0001 41.786 86.9761 41.21V38.132C87.0001 37.556 87.1621 37.046 87.4621 36.602C87.7741 36.146 88.1761 35.786 88.6681 35.522C89.1721 35.258 89.7361 35.126 90.3601 35.126C91.1641 35.126 91.8841 35.324 92.5201 35.72C93.1561 36.116 93.6541 36.656 94.0142 37.34C94.3861 38.024 94.5721 38.798 94.5721 39.662C94.5721 40.514 94.3861 41.282 94.0142 41.966C93.6541 42.65 93.1561 43.19 92.5201 43.586C91.8841 43.982 91.1641 44.18 90.3601 44.18ZM85.5361 47.636V35.306H87.8941V37.592L87.4981 39.698L87.8761 41.804V47.636H85.5361ZM89.9461 42.002C90.3781 42.002 90.7621 41.906 91.0981 41.714C91.4341 41.51 91.6921 41.234 91.8721 40.886C92.0641 40.526 92.1601 40.112 92.1601 39.644C92.1601 39.188 92.0641 38.786 91.8721 38.438C91.6921 38.078 91.4341 37.802 91.0981 37.61C90.7621 37.406 90.3781 37.304 89.9461 37.304C89.5261 37.304 89.1481 37.406 88.8121 37.61C88.4761 37.802 88.2121 38.078 88.0201 38.438C87.8401 38.786 87.7501 39.188 87.7501 39.644C87.7501 40.112 87.8401 40.526 88.0201 40.886C88.2121 41.234 88.4701 41.51 88.7941 41.714C89.1301 41.906 89.5141 42.002 89.9461 42.002ZM95.9382 44V30.986H98.2962V44H95.9382ZM104.363 44.18C103.451 44.18 102.641 43.988 101.933 43.604C101.225 43.208 100.661 42.668 100.241 41.984C99.8334 41.3 99.6294 40.52 99.6294 39.644C99.6294 38.78 99.8274 38.012 100.223 37.34C100.631 36.656 101.183 36.116 101.879 35.72C102.575 35.312 103.349 35.108 104.201 35.108C105.041 35.108 105.779 35.3 106.415 35.684C107.063 36.056 107.567 36.572 107.927 37.232C108.299 37.88 108.485 38.618 108.485 39.446C108.485 39.602 108.473 39.764 108.449 39.932C108.437 40.088 108.407 40.268 108.359 40.472L101.051 40.49V38.726L107.261 38.708L106.307 39.446C106.283 38.93 106.187 38.498 106.019 38.15C105.863 37.802 105.629 37.538 105.317 37.358C105.017 37.166 104.645 37.07 104.201 37.07C103.733 37.07 103.325 37.178 102.977 37.394C102.629 37.598 102.359 37.892 102.167 38.276C101.987 38.648 101.897 39.092 101.897 39.608C101.897 40.136 101.993 40.598 102.185 40.994C102.389 41.378 102.677 41.678 103.049 41.894C103.421 42.098 103.853 42.2 104.345 42.2C104.789 42.2 105.191 42.128 105.551 41.984C105.911 41.828 106.223 41.6 106.487 41.3L107.873 42.686C107.453 43.178 106.937 43.55 106.325 43.802C105.725 44.054 105.071 44.18 104.363 44.18ZM117.023 44.18C116.003 44.18 115.127 44.006 114.395 43.658C113.675 43.31 113.021 42.788 112.433 42.092L114.053 40.472C114.425 40.964 114.857 41.348 115.349 41.624C115.841 41.888 116.441 42.02 117.149 42.02C117.785 42.02 118.289 41.894 118.661 41.642C119.045 41.39 119.237 41.042 119.237 40.598C119.237 40.214 119.129 39.902 118.913 39.662C118.697 39.422 118.409 39.218 118.049 39.05C117.701 38.882 117.311 38.732 116.879 38.6C116.459 38.456 116.033 38.294 115.601 38.114C115.181 37.934 114.791 37.712 114.431 37.448C114.083 37.172 113.801 36.824 113.585 36.404C113.369 35.972 113.261 35.432 113.261 34.784C113.261 34.016 113.447 33.362 113.819 32.822C114.191 32.282 114.701 31.868 115.349 31.58C115.997 31.292 116.729 31.148 117.545 31.148C118.409 31.148 119.189 31.31 119.885 31.634C120.581 31.958 121.151 32.378 121.595 32.894L119.975 34.514C119.603 34.106 119.219 33.806 118.823 33.614C118.439 33.422 118.001 33.326 117.509 33.326C116.945 33.326 116.501 33.434 116.177 33.65C115.853 33.866 115.691 34.178 115.691 34.586C115.691 34.934 115.799 35.216 116.015 35.432C116.231 35.648 116.513 35.834 116.861 35.99C117.221 36.146 117.611 36.296 118.031 36.44C118.463 36.584 118.889 36.746 119.309 36.926C119.741 37.106 120.131 37.34 120.479 37.628C120.839 37.916 121.127 38.288 121.343 38.744C121.559 39.188 121.667 39.74 121.667 40.4C121.667 41.576 121.253 42.5 120.425 43.172C119.597 43.844 118.463 44.18 117.023 44.18ZM124.445 44V31.688H126.803V44H124.445ZM122.411 37.376V35.306H128.837V37.376H122.411ZM133.859 44.18C132.983 44.18 132.191 43.982 131.483 43.586C130.787 43.178 130.229 42.632 129.809 41.948C129.401 41.252 129.197 40.478 129.197 39.626C129.197 38.774 129.401 38.012 129.809 37.34C130.217 36.656 130.775 36.116 131.483 35.72C132.191 35.312 132.977 35.108 133.841 35.108C134.729 35.108 135.521 35.312 136.217 35.72C136.925 36.116 137.483 36.656 137.891 37.34C138.299 38.012 138.503 38.774 138.503 39.626C138.503 40.478 138.299 41.252 137.891 41.948C137.483 42.632 136.925 43.178 136.217 43.586C135.521 43.982 134.735 44.18 133.859 44.18ZM133.841 41.984C134.285 41.984 134.675 41.888 135.011 41.696C135.359 41.492 135.623 41.216 135.803 40.868C135.995 40.508 136.091 40.1 136.091 39.644C136.091 39.188 135.995 38.786 135.803 38.438C135.611 38.09 135.347 37.82 135.011 37.628C134.675 37.424 134.285 37.322 133.841 37.322C133.409 37.322 133.025 37.424 132.689 37.628C132.353 37.82 132.089 38.09 131.897 38.438C131.705 38.786 131.609 39.188 131.609 39.644C131.609 40.1 131.705 40.508 131.897 40.868C132.089 41.216 132.353 41.492 132.689 41.696C133.025 41.888 133.409 41.984 133.841 41.984ZM139.841 44V35.306H142.199V44H139.841ZM142.199 39.194L141.281 38.582C141.389 37.514 141.701 36.674 142.217 36.062C142.733 35.438 143.477 35.126 144.449 35.126C144.869 35.126 145.247 35.198 145.583 35.342C145.919 35.474 146.225 35.696 146.501 36.008L145.025 37.7C144.893 37.556 144.731 37.448 144.539 37.376C144.359 37.304 144.149 37.268 143.909 37.268C143.405 37.268 142.991 37.43 142.667 37.754C142.355 38.066 142.199 38.546 142.199 39.194ZM151.061 44.18C150.149 44.18 149.339 43.988 148.631 43.604C147.923 43.208 147.359 42.668 146.939 41.984C146.531 41.3 146.327 40.52 146.327 39.644C146.327 38.78 146.525 38.012 146.921 37.34C147.329 36.656 147.881 36.116 148.577 35.72C149.273 35.312 150.047 35.108 150.899 35.108C151.739 35.108 152.477 35.3 153.113 35.684C153.761 36.056 154.265 36.572 154.625 37.232C154.997 37.88 155.183 38.618 155.183 39.446C155.183 39.602 155.171 39.764 155.147 39.932C155.135 40.088 155.105 40.268 155.057 40.472L147.749 40.49V38.726L153.959 38.708L153.005 39.446C152.981 38.93 152.885 38.498 152.717 38.15C152.561 37.802 152.327 37.538 152.015 37.358C151.715 37.166 151.343 37.07 150.899 37.07C150.431 37.07 150.023 37.178 149.675 37.394C149.327 37.598 149.057 37.892 148.865 38.276C148.685 38.648 148.595 39.092 148.595 39.608C148.595 40.136 148.691 40.598 148.883 40.994C149.087 41.378 149.375 41.678 149.747 41.894C150.119 42.098 150.551 42.2 151.043 42.2C151.487 42.2 151.889 42.128 152.249 41.984C152.609 41.828 152.921 41.6 153.185 41.3L154.571 42.686C154.151 43.178 153.635 43.55 153.023 43.802C152.423 44.054 151.769 44.18 151.061 44.18Z" fill="#121212"/>
<defs>
<linearGradient id="paint0_linear_1240_58776" x1="48.315" y1="29.3993" x2="23.3833" y2="29.3993" gradientUnits="userSpaceOnUse">
<stop stop-color="#C3F02C"/>
<stop offset="1" stop-color="#3A5646"/>
</linearGradient>
<clipPath id="clip0_1240_58776">
<rect width="30" height="30" fill="white" transform="translate(21 15)"/>
</clipPath>
</defs>
</svg>
