<svg width="30" height="31" viewBox="0 0 30 31" fill="none" xmlns="http://www.w3.org/2000/svg">
<path d="M27.2569 12.7638H26.25V12.7119H15V17.7119H22.0644C21.0338 20.6225 18.2644 22.7119 15 22.7119C10.8581 22.7119 7.5 19.3538 7.5 15.2119C7.5 11.07 10.8581 7.71191 15 7.71191C16.9119 7.71191 18.6513 8.43316 19.9756 9.61129L23.5112 6.07566C21.2787 3.99504 18.2925 2.71191 15 2.71191C8.09688 2.71191 2.5 8.30879 2.5 15.2119C2.5 22.115 8.09688 27.7119 15 27.7119C21.9031 27.7119 27.5 22.115 27.5 15.2119C27.5 14.3738 27.4137 13.5557 27.2569 12.7638Z" fill="#FBC02D"/>
<path d="M3.94141 9.39379L8.04828 12.4057C9.15953 9.65441 11.8508 7.71191 15.0002 7.71191C16.912 7.71191 18.6514 8.43316 19.9758 9.61129L23.5114 6.07566C21.2789 3.99504 18.2927 2.71191 15.0002 2.71191C10.1989 2.71191 6.03516 5.42254 3.94141 9.39379Z" fill="#E53935"/>
<path d="M15.0002 27.7119C18.2289 27.7119 21.1627 26.4762 23.3808 24.4669L19.5121 21.1931C18.2571 22.1437 16.6971 22.7119 15.0002 22.7119C11.7489 22.7119 8.98832 20.6387 7.94832 17.7456L3.87207 20.8862C5.94082 24.9344 10.1421 27.7119 15.0002 27.7119Z" fill="#4CAF50"/>
<path d="M27.2569 12.7638L27.2469 12.7119H26.25H15V17.7119H22.0644C21.5694 19.11 20.67 20.3157 19.51 21.1938L19.5119 21.1925L23.3806 24.4663C23.1069 24.715 27.5 21.4619 27.5 15.2119C27.5 14.3738 27.4137 13.5557 27.2569 12.7638Z" fill="#1565C0"/>
</svg>
