<svg width="30" height="31" viewBox="0 0 30 31" fill="none" xmlns="http://www.w3.org/2000/svg">
<g id="tik-tok 1" clip-path="url(#clip0_5006_25705)">
<path id="Vector" d="M28.0809 13.0444C25.4071 13.0444 22.9284 12.1894 20.9059 10.7369V21.2182C20.9059 26.4532 16.6471 30.7107 11.4134 30.7107C9.3909 30.7107 7.51465 30.0732 5.9734 28.9907C3.5259 27.2719 1.9209 24.4294 1.9209 21.2182C1.9209 15.9832 6.17965 11.7244 11.4146 11.7244C11.8496 11.7244 12.2746 11.7607 12.6934 11.8169V13.0382V17.0819C12.2884 16.9557 11.8609 16.8819 11.4146 16.8819C9.02465 16.8819 7.07965 18.8269 7.07965 21.2182C7.07965 22.8832 8.02465 24.3294 9.40465 25.0557C10.0059 25.3719 10.6896 25.5532 11.4159 25.5532C13.7509 25.5532 15.6559 23.6957 15.7434 21.3807L15.7471 0.711914H20.9046C20.9046 1.15941 20.9484 1.59566 21.0259 2.02066C21.3896 3.98566 22.5559 5.67191 24.1721 6.72566C25.2971 7.45941 26.6396 7.88816 28.0796 7.88816L28.0809 13.0444Z" fill="white"/>
</g>
<defs>
<clipPath id="clip0_5006_25705">
<rect width="30" height="30" fill="white" transform="translate(0 0.711914)"/>
</clipPath>
</defs>
</svg>
