<svg width="30" height="31" viewBox="0 0 30 31" fill="none" xmlns="http://www.w3.org/2000/svg">
<g id="WA_Logo">
<g id="Group">
<path id="Vector" fill-rule="evenodd" clip-rule="evenodd" d="M25.5788 5.07191C22.7713 2.26191 19.0388 0.713164 15.0625 0.711914C6.86879 0.711914 0.200039 7.37941 0.196289 15.5769C0.195039 18.1969 0.880039 20.7544 2.18129 23.0094L0.0712891 30.7119L7.95129 28.6444C10.1225 29.8294 12.5675 30.4532 15.055 30.4544H15.0613C23.2538 30.4544 29.9238 23.7857 29.9275 15.5882C29.93 11.6169 28.385 7.88066 25.5788 5.07191ZM15.0625 27.9432H15.0575C12.84 27.9432 10.6663 27.3469 8.76879 26.2207L8.31754 25.9532L3.64129 27.1794L4.89004 22.6194L4.59629 22.1519C3.35879 20.1844 2.70629 17.9107 2.70754 15.5769C2.71004 8.76441 8.25379 3.22191 15.0688 3.22191C18.3688 3.22191 21.4713 4.50941 23.8038 6.84441C26.1363 9.18066 27.42 12.2844 27.4188 15.5857C27.415 22.4007 21.8725 27.9432 15.0625 27.9432ZM21.84 18.6894C21.4688 18.5032 19.6425 17.6044 19.3013 17.4807C18.9613 17.3569 18.7138 17.2944 18.465 17.6657C18.2163 18.0369 17.5063 18.8744 17.2888 19.1232C17.0725 19.3707 16.855 19.4019 16.4838 19.2157C16.1125 19.0294 14.915 18.6382 13.4963 17.3719C12.3925 16.3869 11.6463 15.1707 11.43 14.7982C11.2138 14.4257 11.4075 14.2257 11.5925 14.0407C11.76 13.8744 11.9638 13.6069 12.15 13.3894C12.3375 13.1744 12.3988 13.0194 12.5238 12.7707C12.6475 12.5232 12.5863 12.3057 12.4925 12.1194C12.3988 11.9344 11.6563 10.1057 11.3475 9.36191C11.0463 8.63691 10.74 8.73566 10.5113 8.72441C10.295 8.71316 10.0475 8.71191 9.79879 8.71191C9.55129 8.71191 9.14879 8.80441 8.80879 9.17691C8.46879 9.54941 7.50879 10.4482 7.50879 12.2757C7.50879 14.1044 8.84004 15.8707 9.02504 16.1182C9.21004 16.3657 11.6438 20.1182 15.37 21.7269C16.2563 22.1094 16.9488 22.3382 17.4875 22.5094C18.3775 22.7919 19.1875 22.7519 19.8275 22.6569C20.5413 22.5507 22.025 21.7582 22.335 20.8907C22.645 20.0232 22.645 19.2782 22.5513 19.1244C22.4588 18.9682 22.2113 18.8757 21.84 18.6894Z" fill="white"/>
</g>
</g>
</svg>
