<svg width="60" height="61" viewBox="0 0 60 61" fill="none" xmlns="http://www.w3.org/2000/svg">
<g id="digital-wallet 1" clip-path="url(#clip0_5006_25630)">
<path id="Vector" d="M3.75 53.2119C1.68 53.2119 0 54.8919 0 56.9619C0 59.0319 1.68 60.7119 3.75 60.7119C5.82 60.7119 7.5 59.0319 7.5 56.9619C7.5 54.8919 5.82 53.2119 3.75 53.2119ZM20 58.2119C20 48.5619 12.1475 40.7119 2.5 40.7119C1.1175 40.7119 0 41.8319 0 43.2119C0 44.5919 1.1175 45.7119 2.5 45.7119C9.3925 45.7119 15 51.3194 15 58.2119C15 59.5919 16.1175 60.7119 17.5 60.7119C18.8825 60.7119 20 59.5919 20 58.2119ZM32.5 58.2119C32.5 41.6694 19.0425 28.2119 2.5 28.2119C1.1175 28.2119 0 29.3319 0 30.7119C0 32.0919 1.1175 33.2119 2.5 33.2119C16.285 33.2119 27.5 44.4269 27.5 58.2119C27.5 59.5919 28.6175 60.7119 30 60.7119C31.3825 60.7119 32.5 59.5919 32.5 58.2119ZM52.5 10.7119H15C12.85 10.7119 10.835 9.80691 9.4125 8.21441C10.7875 6.67941 12.785 5.71191 15 5.71191H57.5C58.8825 5.71191 60 4.59191 60 3.21191C60 1.83191 58.8825 0.711914 57.5 0.711914H15C8.1075 0.711914 2.5 6.31941 2.5 13.2119V23.2119C19.2225 23.2119 33.225 35.0069 36.67 50.7119H52.5C56.635 50.7119 60 47.3469 60 43.2119V18.2119C60 14.0769 56.635 10.7119 52.5 10.7119ZM46.25 34.4619C44.18 34.4619 42.5 32.7819 42.5 30.7119C42.5 28.6419 44.18 26.9619 46.25 26.9619C48.32 26.9619 50 28.6419 50 30.7119C50 32.7819 48.32 34.4619 46.25 34.4619Z" fill="#C3F02C"/>
</g>
<defs>
<clipPath id="clip0_5006_25630">
<rect width="60" height="60" fill="white" transform="translate(0 0.711914)"/>
</clipPath>
</defs>
</svg>
