<svg width="61" height="61" viewBox="0 0 61 61" fill="none" xmlns="http://www.w3.org/2000/svg">
<g id="fee 1" clip-path="url(#clip0_5006_25574)">
<path id="Vector" d="M60.5 56.9622C60.5 59.0322 58.82 60.7122 56.75 60.7122C54.68 60.7122 53 59.0322 53 56.9622C53 54.8922 54.68 53.2122 56.75 53.2122C58.82 53.2122 60.5 54.8922 60.5 56.9622ZM41.75 38.2122C39.68 38.2122 38 39.8922 38 41.9622C38 44.0322 39.68 45.7122 41.75 45.7122C43.82 45.7122 45.5 44.0322 45.5 41.9622C45.5 39.8922 43.82 38.2122 41.75 38.2122ZM45.7275 59.5647L56.9775 42.0647C57.725 40.9022 57.3875 39.3547 56.2275 38.6097C55.0625 37.8572 53.5175 38.1972 52.7725 39.3597L41.5225 56.8597C40.775 58.0222 41.1125 59.5697 42.2725 60.3147C42.6925 60.5847 43.1575 60.7122 43.6225 60.7122C44.445 60.7122 45.25 60.3072 45.7275 59.5647ZM48 5.71216H13C6.0975 5.71216 0.5 11.3097 0.5 18.2122V33.2122C0.5 40.1147 6.0975 45.7122 13 45.7122H31.4325C32.54 45.7122 33.39 44.7097 33.1675 43.6272C33.0575 43.0897 32.9975 42.5347 32.9975 41.9622C32.9975 37.5572 36.2625 33.8247 40.4975 33.2122H60.4975V18.2122C60.4975 11.3097 54.9025 5.71216 48 5.71216ZM11.75 38.2122C9.68 38.2122 8 36.5322 8 34.4622C8 32.3922 9.68 30.7122 11.75 30.7122C13.82 30.7122 15.5 32.3922 15.5 34.4622C15.5 36.5322 13.82 38.2122 11.75 38.2122ZM11.75 20.7122C9.68 20.7122 8 19.0322 8 16.9622C8 14.8922 9.68 13.2122 11.75 13.2122C13.82 13.2122 15.5 14.8922 15.5 16.9622C15.5 19.0322 13.82 20.7122 11.75 20.7122ZM30.5 35.7122C24.985 35.7122 20.5 31.2272 20.5 25.7122C20.5 20.1972 24.985 15.7122 30.5 15.7122C36.015 15.7122 40.5 20.1972 40.5 25.7122C40.5 31.2272 36.015 35.7122 30.5 35.7122ZM49.25 20.7122C47.18 20.7122 45.5 19.0322 45.5 16.9622C45.5 14.8922 47.18 13.2122 49.25 13.2122C51.32 13.2122 53 14.8922 53 16.9622C53 19.0322 51.32 20.7122 49.25 20.7122ZM35.5 25.7122C35.5 28.4697 33.2575 30.7122 30.5 30.7122C27.7425 30.7122 25.5 28.4697 25.5 25.7122C25.5 22.9547 27.7425 20.7122 30.5 20.7122C33.2575 20.7122 35.5 22.9547 35.5 25.7122Z" fill="#3A5646"/>
</g>
<defs>
<clipPath id="clip0_5006_25574">
<rect width="60" height="60" fill="white" transform="translate(0.5 0.712158)"/>
</clipPath>
</defs>
</svg>
