<svg width="30" height="31" viewBox="0 0 30 31" fill="none" xmlns="http://www.w3.org/2000/svg">
<g clip-path="url(#clip0_5457_20798)">
<path d="M15 3.41441C19.005 3.41441 19.48 3.42941 21.0613 3.50191C22.6963 3.57691 24.38 3.94941 25.5713 5.14066C26.7738 6.34316 27.135 8.01066 27.21 9.65066C27.2825 11.2319 27.2975 11.7069 27.2975 15.7119C27.2975 19.7169 27.2825 20.1919 27.21 21.7732C27.1362 23.3994 26.755 25.0994 25.5713 26.2832C24.3688 27.4857 22.7025 27.8469 21.0613 27.9219C19.48 27.9944 19.005 28.0094 15 28.0094C10.995 28.0094 10.52 27.9944 8.93875 27.9219C7.325 27.8482 5.6025 27.4582 4.42875 26.2832C3.2325 25.0869 2.865 23.4032 2.79 21.7732C2.7175 20.1919 2.7025 19.7169 2.7025 15.7119C2.7025 11.7069 2.7175 11.2319 2.79 9.65066C2.86375 8.03066 3.24875 6.32066 4.42875 5.14066C5.62875 3.94066 7.3025 3.57691 8.93875 3.50191C10.52 3.42941 10.995 3.41441 15 3.41441ZM15 0.711914C10.9262 0.711914 10.415 0.729414 8.815 0.801914C6.49625 0.908164 4.19375 1.55316 2.5175 3.22941C0.835 4.91191 0.19625 7.20941 0.09 9.52691C0.0175 11.1269 0 11.6382 0 15.7119C0 19.7857 0.0175 20.2969 0.09 21.8969C0.19625 24.2132 0.84375 26.5219 2.5175 28.1944C4.19875 29.8757 6.5 30.5157 8.815 30.6219C10.415 30.6944 10.9262 30.7119 15 30.7119C19.0738 30.7119 19.585 30.6944 21.185 30.6219C23.5025 30.5157 25.8075 29.8694 27.4825 28.1944C29.1663 26.5107 29.8037 24.2144 29.91 21.8969C29.9825 20.2969 30 19.7857 30 15.7119C30 11.6382 29.9825 11.1269 29.91 9.52691C29.8037 7.20816 29.1575 4.90441 27.4825 3.22941C25.8038 1.55066 23.4962 0.906914 21.185 0.801914C19.585 0.729414 19.0738 0.711914 15 0.711914Z" fill="white"/>
<path d="M15.0004 8.00977C10.7466 8.00977 7.29785 11.4585 7.29785 15.7123C7.29785 19.966 10.7466 23.4148 15.0004 23.4148C19.2541 23.4148 22.7029 19.966 22.7029 15.7123C22.7029 11.4585 19.2541 8.00977 15.0004 8.00977ZM15.0004 20.7123C12.2391 20.7123 10.0004 18.4735 10.0004 15.7123C10.0004 12.951 12.2391 10.7123 15.0004 10.7123C17.7616 10.7123 20.0004 12.951 20.0004 15.7123C20.0004 18.4735 17.7616 20.7123 15.0004 20.7123Z" fill="white"/>
<path d="M23.007 9.5043C24.0011 9.5043 24.807 8.69841 24.807 7.7043C24.807 6.71018 24.0011 5.9043 23.007 5.9043C22.0129 5.9043 21.207 6.71018 21.207 7.7043C21.207 8.69841 22.0129 9.5043 23.007 9.5043Z" fill="white"/>
</g>
<defs>
<clipPath id="clip0_5457_20798">
<rect width="30" height="30" fill="white" transform="translate(0 0.711914)"/>
</clipPath>
</defs>
</svg>
