<svg xmlns="http://www.w3.org/2000/svg" width="30" height="30" viewBox="0 0 30 30" fill="none">
  <g clip-path="url(#clip0_1512_96490)">
    <path d="M30 3.125V26.875C30 27.2854 29.9192 27.6917 29.7621 28.0709C29.6051 28.45 29.3749 28.7945 29.0847 29.0847C28.7945 29.3749 28.45 29.6051 28.0709 29.7621C27.6917 29.9192 27.2854 30 26.875 30C26.0462 30 25.2513 29.6708 24.6653 29.0847C24.0792 28.4987 23.75 27.7038 23.75 26.875V3.125C23.75 2.71462 23.8308 2.30826 23.9879 1.92911C24.1449 1.54997 24.3751 1.20547 24.6653 0.915291C24.9555 0.625109 25.3 0.394924 25.6791 0.237877C26.0583 0.0808315 26.4646 0 26.875 0C27.2854 0 27.6917 0.0808315 28.0709 0.237877C28.45 0.394924 28.7945 0.625109 29.0847 0.915291C29.3749 1.20547 29.6051 1.54997 29.7621 1.92911C29.9192 2.30826 30 2.71462 30 3.125ZM17.5 0C16.837 0 16.2011 0.263393 15.7322 0.732233C15.2634 1.20107 15 1.83696 15 2.5L15 27.5C15 28.163 15.2634 28.7989 15.7322 29.2678C16.2011 29.7366 16.837 30 17.5 30C18.163 30 18.7989 29.7366 19.2678 29.2678C19.7366 28.7989 20 28.163 20 27.5V2.5C20 1.83696 19.7366 1.20107 19.2678 0.732233C18.7989 0.263393 18.163 0 17.5 0ZM9.375 0C8.87772 0 8.40081 0.197544 8.04918 0.549175C7.69754 0.900806 7.5 1.37772 7.5 1.875L7.5 28.125C7.5 28.6223 7.69754 29.0992 8.04918 29.4508C8.40081 29.8025 8.87772 30 9.375 30C9.87228 30 10.3492 29.8025 10.7008 29.4508C11.0525 29.0992 11.25 28.6223 11.25 28.125L11.25 1.875C11.25 1.37772 11.0525 0.900806 10.7008 0.549175C10.3492 0.197544 9.87228 0 9.375 0ZM2.5 0C2.16848 0 1.85054 0.131695 1.61612 0.366116C1.3817 0.600536 1.25 0.91848 1.25 1.25L1.25 28.75C1.25 29.0815 1.3817 29.3995 1.61612 29.6339C1.85054 29.8683 2.16848 30 2.5 30C2.83152 30 3.14946 29.8683 3.38388 29.6339C3.6183 29.3995 3.75 29.0815 3.75 28.75L3.75 1.25C3.75 0.91848 3.6183 0.600536 3.38388 0.366116C3.14946 0.131695 2.83152 0 2.5 0Z" fill="white"/>
  </g>
  <defs>
    <clipPath id="clip0_1512_96490">
      <rect width="30" height="30" fill="white" transform="matrix(0 -1 1 0 0 30)"/>
    </clipPath>
  </defs>
</svg>