<svg xmlns="http://www.w3.org/2000/svg" width="30" height="30" viewBox="0 0 30 30" fill="none">
  <g clip-path="url(#clip0_1512_83591)">
    <path d="M26.875 30H3.125C2.71462 30 2.30826 29.9192 1.92911 29.7621C1.54997 29.6051 1.20547 29.3749 0.915291 29.0847C0.625108 28.7945 0.394922 28.45 0.237876 28.0709C0.0808305 27.6917 0 27.2854 0 26.875C0 26.0462 0.32924 25.2513 0.915291 24.6653C1.50134 24.0792 2.2962 23.75 3.125 23.75H26.875C27.2854 23.75 27.6917 23.8308 28.0709 23.9879C28.45 24.1449 28.7945 24.3751 29.0847 24.6653C29.3749 24.9555 29.6051 25.3 29.7621 25.6791C29.9192 26.0583 30 26.4646 30 26.875C30 27.2854 29.9192 27.6917 29.7621 28.0709C29.6051 28.45 29.3749 28.7945 29.0847 29.0847C28.7945 29.3749 28.45 29.6051 28.0709 29.7621C27.6917 29.9192 27.2854 30 26.875 30ZM30 17.5C30 16.837 29.7366 16.2011 29.2678 15.7322C28.7989 15.2634 28.163 15 27.5 15H2.5C1.83696 15 1.20107 15.2634 0.732233 15.7322C0.263392 16.2011 0 16.837 0 17.5C0 18.163 0.263392 18.7989 0.732233 19.2678C1.20107 19.7366 1.83696 20 2.5 20H27.5C28.163 20 28.7989 19.7366 29.2678 19.2678C29.7366 18.7989 30 18.163 30 17.5ZM30 9.375C30 8.87772 29.8025 8.40081 29.4508 8.04918C29.0992 7.69754 28.6223 7.5 28.125 7.5H1.875C1.37772 7.5 0.900805 7.69754 0.549175 8.04918C0.197544 8.40081 0 8.87772 0 9.375C0 9.87228 0.197544 10.3492 0.549175 10.7008C0.900805 11.0525 1.37772 11.25 1.875 11.25H28.125C28.6223 11.25 29.0992 11.0525 29.4508 10.7008C29.8025 10.3492 30 9.87228 30 9.375ZM30 2.5C30 2.16848 29.8683 1.85054 29.6339 1.61612C29.3995 1.3817 29.0815 1.25 28.75 1.25H1.25C0.918479 1.25 0.600537 1.3817 0.366117 1.61612C0.131696 1.85054 0 2.16848 0 2.5C0 2.83152 0.131696 3.14946 0.366117 3.38388C0.600537 3.6183 0.918479 3.75 1.25 3.75H28.75C29.0815 3.75 29.3995 3.6183 29.6339 3.38388C29.8683 3.14946 30 2.83152 30 2.5Z" fill="#67967B"/>
  </g>
  <defs>
    <clipPath id="clip0_1512_83591">
      <rect width="30" height="30" fill="white"/>
    </clipPath>
  </defs>
</svg>