<svg width="61" height="61" viewBox="0 0 61 61" fill="none" xmlns="http://www.w3.org/2000/svg">
<g id="binary-lock 1" clip-path="url(#clip0_5006_25579)">
<path id="Vector" d="M20.5 10.7121C20.5 5.1871 16.025 0.7121 10.5 0.7121C4.975 0.7121 0.5 5.1871 0.5 10.7121V18.2121C0.5 23.7371 4.975 28.2121 10.5 28.2121C16.025 28.2121 20.5 23.7371 20.5 18.2121V10.7121ZM15.5 18.2121C15.5 20.9621 13.25 23.2121 10.5 23.2121C7.75 23.2121 5.5 20.9621 5.5 18.2121V10.7121C5.5 7.9621 7.75 5.7121 10.5 5.7121C13.25 5.7121 15.5 7.9621 15.5 10.7121V18.2121ZM30.5 35.7121C30.5 37.0871 29.375 38.2121 28 38.2121C25.25 38.2121 23 40.4621 23 43.2121V50.7121C23 52.1371 23.6 53.4871 24.675 54.4371C25.7 55.3621 25.8 56.9371 24.875 57.9621C24.375 58.5121 23.7 58.7871 23 58.7871C22.4 58.7871 21.8 58.5871 21.325 58.1621C19.2 56.2621 18 53.5621 18 50.7121V43.2121C18 37.6871 22.475 33.2121 28 33.2121C29.375 33.2121 30.5 34.3371 30.5 35.7121ZM25.125 11.0871C24.15 10.1121 24.15 8.5371 25.125 7.5621L31.225 1.4371C31.95 0.7121 33.025 0.5121 33.95 0.8871C34.875 1.2621 35.5 2.1871 35.5 3.1871V23.2121C35.5 24.5871 34.375 25.7121 33 25.7121C31.625 25.7121 30.5 24.5871 30.5 23.2121V9.2371L28.65 11.0871C27.675 12.0621 26.1 12.0621 25.125 11.0871ZM13 35.7121V58.2121C13 59.5871 11.875 60.7121 10.5 60.7121C9.125 60.7121 8 59.5871 8 58.2121V41.7371L6.15 43.5871C5.175 44.5621 3.6 44.5621 2.625 43.5871C1.65 42.6121 1.65 41.0371 2.625 40.0621L8.725 33.9621C9.45 33.2371 10.525 33.0371 11.45 33.4121C12.375 33.7871 13 34.7121 13 35.7121ZM55.5 37.1121V33.2121C55.5 27.6871 51.025 23.2121 45.5 23.2121C39.975 23.2121 35.5 27.6871 35.5 33.2121V37.1121C32.525 38.8371 30.5 42.0371 30.5 45.7121V50.7121C30.5 56.2371 34.975 60.7121 40.5 60.7121H50.5C56.025 60.7121 60.5 56.2371 60.5 50.7121V45.7121C60.5 42.0371 58.475 38.8371 55.5 37.1121ZM40.5 33.2121C40.5 30.4621 42.75 28.2121 45.5 28.2121C48.25 28.2121 50.5 30.4621 50.5 33.2121V35.7121H40.5V33.2121ZM49.25 48.2121C49.25 50.2871 47.575 51.9621 45.5 51.9621C43.425 51.9621 41.75 50.2871 41.75 48.2121C41.75 46.1371 43.425 44.4621 45.5 44.4621C47.575 44.4621 49.25 46.1371 49.25 48.2121Z" fill="#3A5646"/>
</g>
<defs>
<clipPath id="clip0_5006_25579">
<rect width="60" height="60" fill="white" transform="translate(0.5 0.712158)"/>
</clipPath>
</defs>
</svg>
