<svg width="60" height="61" viewBox="0 0 60 61" fill="none" xmlns="http://www.w3.org/2000/svg">
<g id="bank (1) 1" clip-path="url(#clip0_5011_33722)">
<path id="Vector" d="M59.9996 59.4621C59.9996 60.1521 59.4396 60.7121 58.7496 60.7121H1.24959C0.559589 60.7121 -0.000410981 60.1521 -0.000410981 59.4621C-0.000410981 58.7721 0.559589 58.2121 1.24959 58.2121H58.7496C59.4396 58.2121 59.9996 58.7721 59.9996 59.4621ZM0.602089 20.1596C-0.302911 18.4296 -0.185411 16.4496 0.917089 14.8646C1.94209 13.3871 5.77959 11.3921 5.78459 11.3896L24.4121 2.06708C27.9021 0.247081 32.0921 0.244582 35.6071 2.07708L54.7346 11.7746L54.7471 11.7796C54.7471 11.7796 58.1346 13.4946 59.0846 14.8596C60.1846 16.4446 60.3021 18.4246 59.3971 20.1546C58.4096 22.0371 56.4521 23.2071 54.2846 23.2071H52.4996V48.2071H56.2496C56.9396 48.2071 57.4996 48.7671 57.4996 49.4571C57.4996 50.1471 56.9396 50.7071 56.2496 50.7071H3.74959C3.05959 50.7071 2.49959 50.1471 2.49959 49.4571C2.49959 48.7671 3.05959 48.2071 3.74959 48.2071H7.49959V23.2071H5.71459C3.54709 23.2071 1.58959 22.0371 0.602089 20.1546V20.1596ZM9.99959 48.2121H20.0046L20.0921 23.2121H9.99959V48.2121ZM22.5921 23.2121L22.5046 48.2121H37.4996V23.2121H22.5921ZM49.9996 23.2121H39.9996V48.2121H49.9996V23.2121ZM2.81959 18.9996C3.37209 20.0546 4.47959 20.7121 5.71459 20.7121H54.2846C55.5196 20.7121 56.6296 20.0571 57.1796 18.9996C57.6521 18.0946 57.5971 17.1071 57.0296 16.2896C56.4421 15.4446 55.2971 14.8671 54.1896 14.3071L34.4621 4.30208C33.0621 3.57208 31.5271 3.20708 29.9971 3.20708C28.4671 3.20708 26.9396 3.56958 25.5471 4.29458L6.90459 13.6246C5.49209 14.3596 3.64209 15.3196 2.97209 16.2896C2.40209 17.1096 2.34709 18.0971 2.81959 18.9996Z" fill="#3A5646"/>
</g>
<defs>
<clipPath id="clip0_5011_33722">
<rect width="60" height="60" fill="white" transform="translate(0 0.712158)"/>
</clipPath>
</defs>
</svg>
