<svg width="60" height="61" viewBox="0 0 60 61" fill="none" xmlns="http://www.w3.org/2000/svg">
<g id="arrow-down-from-arc 1" clip-path="url(#clip0_5006_25608)">
<path id="Vector" d="M47.168 41.7469C48.6705 43.1744 48.7255 45.5494 47.298 47.0469L37.1355 57.7169C35.183 59.6719 32.673 60.7119 30.0005 60.7119C27.328 60.7119 24.8205 59.6719 22.9305 57.7819L12.703 47.0469C11.2755 45.5469 11.3305 43.1744 12.833 41.7469C14.3305 40.3219 16.7005 40.3719 18.133 41.8769L26.2505 50.3994V21.9644C26.2505 19.8919 27.9305 18.2144 30.0005 18.2144C32.0705 18.2144 33.7505 19.8919 33.7505 21.9644V50.4019L41.868 41.8794C43.3005 40.3769 45.6705 40.3244 47.168 41.7494V41.7469ZM30.0005 0.711914C13.948 0.711914 0.78298 13.2644 0.0354797 29.2869C-0.0620203 31.3569 1.53798 33.1119 3.60548 33.2094C5.75048 33.2919 7.43048 31.7069 7.52548 29.6394C8.09048 17.6244 17.9605 8.21441 30.0005 8.21441C42.0405 8.21441 51.913 17.6269 52.4755 29.6394C52.568 31.6494 54.228 33.2144 56.218 33.2144C56.2755 33.2144 56.3355 33.2144 56.3955 33.2119C58.463 33.1144 60.063 31.3594 59.9655 29.2894C59.2155 13.2669 46.053 0.714414 30.0005 0.714414V0.711914Z" fill="#C3F02C"/>
</g>
<defs>
<clipPath id="clip0_5006_25608">
<rect width="60" height="60" fill="white" transform="translate(0 0.711914)"/>
</clipPath>
</defs>
</svg>
