<svg width="61" height="61" viewBox="0 0 61 61" fill="none" xmlns="http://www.w3.org/2000/svg">
<g id="shield-check 1" clip-path="url(#clip0_5006_25587)">
<path id="Vector" d="M46.9525 6.06227L31.29 0.839772C30.7772 0.668969 30.2228 0.668969 29.71 0.839772L14.0475 6.06227C11.5573 6.88947 9.39104 8.48041 7.85661 10.609C6.32218 12.7377 5.4976 15.2957 5.50001 17.9198V30.7123C5.50001 49.6198 28.5 60.0623 29.485 60.4973C29.8046 60.6392 30.1503 60.7126 30.5 60.7126C30.8497 60.7126 31.1955 60.6392 31.515 60.4973C32.5 60.0623 55.5 49.6198 55.5 30.7123V17.9198C55.5024 15.2957 54.6778 12.7377 53.1434 10.609C51.609 8.48041 49.4427 6.88947 46.9525 6.06227ZM42.295 25.0048L31.615 35.6848C31.178 36.1247 30.6579 36.4735 30.0849 36.7108C29.512 36.9482 28.8976 37.0693 28.2775 37.0673H28.195C27.5622 37.0576 26.938 36.9197 26.36 36.6618C25.7821 36.404 25.2624 36.0317 24.8325 35.5673L19.0675 29.5673C18.8178 29.3356 18.6181 29.0554 18.4806 28.7438C18.3431 28.4322 18.2708 28.0958 18.268 27.7553C18.2651 27.4147 18.3319 27.0771 18.4643 26.7633C18.5966 26.4495 18.7916 26.166 19.0374 25.9303C19.2832 25.6945 19.5746 25.5115 19.8937 25.3924C20.2128 25.2733 20.5528 25.2207 20.893 25.2377C21.2331 25.2548 21.5662 25.3411 21.8718 25.4915C22.1774 25.6419 22.449 25.8531 22.67 26.1123L28.28 31.9623L38.75 21.4623C39.2215 21.0069 39.853 20.7549 40.5085 20.7606C41.164 20.7663 41.791 21.0292 42.2546 21.4927C42.7181 21.9562 42.981 22.5833 42.9867 23.2388C42.9924 23.8943 42.7404 24.5258 42.285 24.9973L42.295 25.0048Z" fill="#3A5646"/>
</g>
<defs>
<clipPath id="clip0_5006_25587">
<rect width="60" height="60" fill="white" transform="translate(0.5 0.712158)"/>
</clipPath>
</defs>
</svg>
