<?xml version="1.0" encoding="UTF-8"?>
<svg id="Layer_1" xmlns="http://www.w3.org/2000/svg" viewBox="0 0 242.4 247.83" fill="#ffffff" stroke="#ffffff">
  <path d="M135.78,118.74c2.56-16.59,13.62-24.82,28.49-28.82,13.4-3.61,27.01-4.81,40.58-.64,22.38,6.88,37.27,27.77,37.41,53.07.19,32.9-.03,65.81.14,98.71.02,4.77-.99,6.9-6.32,6.76-13.51-.33-27.05-.33-40.56,0-5.32.13-6.34-1.98-6.32-6.76.17-32.68-.09-65.36.22-98.03.08-7.93-3.26-12.99-9.94-16.01-17.52-7.91-33.99-4.93-41.24,14.94-2.27,6.22-3.85,13.05-3.96,19.63-.44,26.36-.35,52.73-.06,79.1.06,5.77-1.84,7.28-7.34,7.13-13.06-.35-26.14-.29-39.21-.02-4.86.1-6.72-1.14-6.7-6.38.17-49.58.15-99.16.02-148.74-.01-4.58,1.18-6.41,6.07-6.31,13.74.28,27.49.23,41.24.02,4.4-.07,6.01,1.35,5.87,5.82-.27,8.73-.08,17.47-.08,26.21.56.11,1.13.22,1.69.32Z"/>
  <path d="M5.32,166.36c0-24.32.12-48.65-.1-72.97-.05-5.13,1.11-7.22,6.73-7.05,13.5.4,27.03.26,40.54.05,4.32-.07,5.94,1.22,5.93,5.74-.12,50-.13,100,0,150,.01,4.64-1.83,5.7-6.03,5.64-13.29-.19-26.58-.3-39.86.04-5.5.14-7.4-1.37-7.33-7.13.3-24.77.13-49.55.13-74.32Z"/>
  <path d="M63.67,32.13c-.01,16.55-15.42,31.83-31.78,31.53C14.58,63.34-.35,48.29,0,31.52.37,14.57,14.95.1,31.79,0c16.88-.1,31.9,15.03,31.88,32.13Z"/>
</svg>