<svg width="61" height="61" viewBox="0 0 61 61" fill="none" xmlns="http://www.w3.org/2000/svg">
<g clip-path="url(#clip0_5006_25592)">
<path d="M45.5 30.7122C37.215 30.7122 30.5 37.4272 30.5 45.7122C30.5 53.9972 37.215 60.7122 45.5 60.7122C53.785 60.7122 60.5 53.9972 60.5 45.7122C60.5 37.4272 53.785 30.7122 45.5 30.7122ZM54.7075 44.9922L47.95 51.5272C46.82 52.6422 45.32 53.2047 43.8175 53.2047C42.315 53.2047 40.81 52.6422 39.66 51.5197L36.275 48.1897C35.2875 47.2222 35.275 45.6397 36.24 44.6547C37.205 43.6672 38.7875 43.6522 39.775 44.6197L43.16 47.9472C43.52 48.3022 44.11 48.2947 44.465 47.9422L51.2475 41.3822C52.24 40.4297 53.825 40.4572 54.7825 41.4547C55.7375 42.4497 55.705 44.0322 54.71 44.9897L54.7075 44.9922ZM25.5 45.7122C24.12 45.7122 23 44.5947 23 43.2122V38.2122C23 36.8297 24.12 35.7122 25.5 35.7122C26.3875 35.7122 27.13 36.2022 27.575 36.8972C30.84 30.2822 37.6375 25.7122 45.5 25.7122C46.38 25.7122 47.24 25.7897 48.0925 25.8997C46.79 24.1147 45.0475 22.6697 43 21.7722V18.2122C43 8.56216 35.15 0.712158 25.5 0.712158C15.85 0.712158 8 8.56216 8 18.2122V21.7722C3.5925 23.7072 0.5 28.0997 0.5 33.2122V48.2122C0.5 55.1047 6.1075 60.7122 13 60.7122H32.315C28.1475 57.0447 25.5 51.6872 25.5 45.7122ZM13 18.2122C13 11.3197 18.6075 5.71216 25.5 5.71216C32.3925 5.71216 38 11.3197 38 18.2122V20.7122H13V18.2122Z" fill="#3A5646"/>
</g>
<defs>
<clipPath id="clip0_5006_25592">
<rect width="60" height="60" fill="white" transform="translate(0.5 0.712158)"/>
</clipPath>
</defs>
</svg>
