<svg width="60" height="61" viewBox="0 0 60 61" fill="none" xmlns="http://www.w3.org/2000/svg">
<g id="admin-alt (1) 1" clip-path="url(#clip0_5006_25619)">
<path id="Vector" d="M20 30.7119C28.2725 30.7119 35 23.9844 35 15.7119C35 7.43941 28.2725 0.711914 20 0.711914C11.7275 0.711914 5 7.43941 5 15.7119C5 23.9844 11.7275 30.7119 20 30.7119ZM56.74 48.5469L54.305 47.1419C54.72 45.8994 55 44.5944 55 43.2119C55 41.8294 54.7225 40.5244 54.305 39.2819L56.74 37.8769C57.935 37.1869 58.345 35.6569 57.655 34.4619C56.9625 33.2644 55.435 32.8544 54.24 33.5469L51.8075 34.9519C50.045 32.9669 47.6975 31.5144 45 30.9669V28.2144C45 26.8344 43.88 25.7144 42.5 25.7144C41.12 25.7144 40 26.8344 40 28.2144V30.9669C37.3025 31.5169 34.955 32.9694 33.1925 34.9519L30.76 33.5469C29.5575 32.8544 28.035 33.2644 27.345 34.4619C26.655 35.6594 27.065 37.1869 28.26 37.8769L30.695 39.2819C30.28 40.5244 30 41.8294 30 43.2119C30 44.5944 30.2775 45.8994 30.695 47.1419L28.26 48.5469C27.065 49.2369 26.655 50.7669 27.345 51.9619C27.81 52.7644 28.6475 53.2119 29.5125 53.2119C29.935 53.2119 30.365 53.1044 30.76 52.8769L33.1925 51.4719C34.955 53.4569 37.3025 54.9094 40 55.4569V58.2094C40 59.5894 41.12 60.7094 42.5 60.7094C43.88 60.7094 45 59.5894 45 58.2094V55.4569C47.6975 54.9069 50.045 53.4544 51.8075 51.4719L54.24 52.8769C54.635 53.1044 55.065 53.2119 55.4875 53.2119C56.3525 53.2119 57.1925 52.7644 57.655 51.9619C58.345 50.7644 57.935 49.2369 56.74 48.5469ZM42.5 46.9619C40.4325 46.9619 38.75 45.2794 38.75 43.2119C38.75 41.1444 40.4325 39.4619 42.5 39.4619C44.5675 39.4619 46.25 41.1444 46.25 43.2119C46.25 45.2794 44.5675 46.9619 42.5 46.9619ZM21.25 43.2119C21.25 41.8394 21.3875 40.4469 21.6625 39.0669C21.8275 38.2344 21.5575 37.3769 20.95 36.7869C20.3425 36.1969 19.4775 35.9569 18.65 36.1444C8.0175 38.5844 0 48.0719 0 58.2119C0 59.5919 1.12 60.7119 2.5 60.7119H24.0925C25.0575 60.7119 25.9375 60.1569 26.35 59.2844C26.765 58.4119 26.64 57.3794 26.03 56.6319C22.9475 52.8544 21.25 48.0894 21.25 43.2119Z" fill="#C3F02C"/>
</g>
<defs>
<clipPath id="clip0_5006_25619">
<rect width="60" height="60" fill="white" transform="translate(0 0.711914)"/>
</clipPath>
</defs>
</svg>
