<svg width="60" height="181" viewBox="0 0 60 181" fill="none" xmlns="http://www.w3.org/2000/svg">
<path d="M41.3 107.72C41.3 109.42 41.01 110.88 40.43 112.1C39.85 113.3 38.98 114.39 37.82 115.37L35.12 112.67C35.94 112.05 36.58 111.33 37.04 110.51C37.48 109.69 37.7 108.69 37.7 107.51C37.7 106.45 37.49 105.61 37.07 104.99C36.65 104.35 36.07 104.03 35.33 104.03C34.69 104.03 34.17 104.21 33.77 104.57C33.37 104.93 33.03 105.41 32.75 106.01C32.47 106.59 32.22 107.24 32 107.96C31.76 108.66 31.49 109.37 31.19 110.09C30.89 110.79 30.52 111.44 30.08 112.04C29.62 112.62 29.04 113.09 28.34 113.45C27.62 113.81 26.72 113.99 25.64 113.99C24.36 113.99 23.27 113.68 22.37 113.06C21.47 112.44 20.78 111.59 20.3 110.51C19.82 109.43 19.58 108.21 19.58 106.85C19.58 105.41 19.85 104.11 20.39 102.95C20.93 101.79 21.63 100.84 22.49 100.1L25.19 102.8C24.51 103.42 24.01 104.06 23.69 104.72C23.37 105.36 23.21 106.09 23.21 106.91C23.21 107.85 23.39 108.59 23.75 109.13C24.11 109.67 24.63 109.94 25.31 109.94C25.89 109.94 26.36 109.76 26.72 109.4C27.08 109.04 27.39 108.57 27.65 107.99C27.91 107.39 28.16 106.74 28.4 106.04C28.64 105.32 28.91 104.61 29.21 103.91C29.51 103.19 29.9 102.54 30.38 101.96C30.86 101.36 31.48 100.88 32.24 100.52C32.98 100.16 33.9 99.98 35 99.98C36.96 99.98 38.5 100.67 39.62 102.05C40.74 103.43 41.3 105.32 41.3 107.72ZM41.3 92.1371C41.3 93.4571 40.97 94.6471 40.31 95.7071C39.65 96.7671 38.75 97.5971 37.61 98.1971C36.47 98.7971 35.19 99.0971 33.77 99.0971C32.33 99.0971 31.04 98.7971 29.9 98.1971C28.76 97.5971 27.86 96.7671 27.2 95.7071C26.54 94.6471 26.21 93.4571 26.21 92.1371C26.21 91.0971 26.42 90.1671 26.84 89.3471C27.26 88.5271 27.85 87.8771 28.61 87.3971C29.35 86.8971 30.19 86.6271 31.13 86.5871H36.35C37.31 86.6271 38.16 86.8971 38.9 87.3971C39.64 87.8771 40.23 88.5271 40.67 89.3471C41.09 90.1671 41.3 91.0971 41.3 92.1371ZM37.67 91.4171C37.67 90.3171 37.31 89.4271 36.59 88.7471C35.85 88.0671 34.9 87.7271 33.74 87.7271C32.98 87.7271 32.31 87.8871 31.73 88.2071C31.13 88.5071 30.67 88.9371 30.35 89.4971C30.01 90.0371 29.84 90.6771 29.84 91.4171C29.84 92.1371 30.01 92.7771 30.35 93.3371C30.67 93.8771 31.13 94.3071 31.73 94.6271C32.31 94.9271 32.98 95.0771 33.74 95.0771C34.52 95.0771 35.21 94.9271 35.81 94.6271C36.39 94.3071 36.85 93.8771 37.19 93.3371C37.51 92.7771 37.67 92.1371 37.67 91.4171ZM41 87.9371H37.1L33.56 87.3071L30.08 87.9371H26.51V84.0371H41V87.9371ZM41 79.5404H24.95C23.79 79.5404 22.77 79.2904 21.89 78.7904C20.99 78.2904 20.28 77.5804 19.76 76.6604C19.24 75.7404 18.98 74.6604 18.98 73.4204C18.98 72.4804 19.14 71.6704 19.46 70.9904C19.78 70.3104 20.22 69.7004 20.78 69.1604L23.3 71.6504C23.08 71.8704 22.91 72.1104 22.79 72.3704C22.67 72.6304 22.61 72.9604 22.61 73.3604C22.61 74.0804 22.81 74.6404 23.21 75.0404C23.59 75.4204 24.14 75.6104 24.86 75.6104H41V79.5404ZM29.96 82.9004H26.51L26.51 71.3204H29.96V82.9004ZM41.3 63.612C41.3 64.892 41.03 66.032 40.49 67.032C39.95 68.012 39.2 68.782 38.24 69.342C37.28 69.902 36.17 70.182 34.91 70.182H26.51V66.222H34.82C35.42 66.222 35.94 66.122 36.38 65.922C36.8 65.722 37.12 65.422 37.34 65.022C37.56 64.622 37.67 64.152 37.67 63.612C37.67 62.792 37.42 62.152 36.92 61.692C36.42 61.232 35.72 61.002 34.82 61.002H26.51V57.072H34.91C36.19 57.072 37.31 57.352 38.27 57.912C39.23 58.452 39.98 59.222 40.52 60.222C41.04 61.202 41.3 62.332 41.3 63.612ZM41 54.8424H19.31V50.9124H41V54.8424ZM33.17 44.9103H29.84V40.0203C29.84 39.3803 29.71 38.8003 29.45 38.2803C29.19 37.7603 28.82 37.3503 28.34 37.0503C27.84 36.7503 27.24 36.6003 26.54 36.6003C25.86 36.6003 25.27 36.7503 24.77 37.0503C24.27 37.3503 23.89 37.7603 23.63 38.2803C23.37 38.8003 23.24 39.3803 23.24 40.0203L23.24 44.9103H19.91L19.91 39.6003C19.91 38.2603 20.18 37.0603 20.72 36.0003C21.26 34.9203 22.03 34.0703 23.03 33.4503C24.01 32.8303 25.18 32.5203 26.54 32.5203C27.9 32.5203 29.08 32.8303 30.08 33.4503C31.06 34.0703 31.82 34.9203 32.36 36.0003C32.9 37.0603 33.17 38.2603 33.17 39.6003V44.9103ZM41 47.9103H19.91V43.8303H41V47.9103ZM41.3 25.3578C41.3 26.6778 40.97 27.8678 40.31 28.9278C39.65 29.9878 38.75 30.8178 37.61 31.4178C36.47 32.0178 35.19 32.3178 33.77 32.3178C32.33 32.3178 31.04 32.0178 29.9 31.4178C28.76 30.8178 27.86 29.9878 27.2 28.9278C26.54 27.8678 26.21 26.6778 26.21 25.3578C26.21 24.3178 26.42 23.3878 26.84 22.5678C27.26 21.7478 27.85 21.0978 28.61 20.6178C29.35 20.1178 30.19 19.8478 31.13 19.8078H36.35C37.31 19.8478 38.16 20.1178 38.9 20.6178C39.64 21.0978 40.23 21.7478 40.67 22.5678C41.09 23.3878 41.3 24.3178 41.3 25.3578ZM37.67 24.6378C37.67 23.5378 37.31 22.6478 36.59 21.9678C35.85 21.2878 34.9 20.9478 33.74 20.9478C32.98 20.9478 32.31 21.1078 31.73 21.4278C31.13 21.7278 30.67 22.1578 30.35 22.7178C30.01 23.2578 29.84 23.8978 29.84 24.6378C29.84 25.3578 30.01 25.9978 30.35 26.5578C30.67 27.0978 31.13 27.5278 31.73 27.8478C32.31 28.1478 32.98 28.2978 33.74 28.2978C34.52 28.2978 35.21 28.1478 35.81 27.8478C36.39 27.5278 36.85 27.0978 37.19 26.5578C37.51 25.9978 37.67 25.3578 37.67 24.6378ZM41 21.1578H37.1L33.56 20.5278L30.08 21.1578H26.51V17.2578H41V21.1578ZM41.12 10.1211L26.51 16.1811V11.9211L37.67 7.9011V9.3411L26.51 5.1711V0.881097L41.12 7.3311V10.1211ZM47.06 14.1411L37.73 9.7311L41.12 7.3311L47.06 9.9711V14.1411Z" fill="white"/>
<path d="M13 138V138C18.5228 138 23 142.477 23 148V157.75H21L23 162.103V168V168C17.4772 168 13 163.523 13 158V138Z" fill="white"/>
<path d="M37 133.5V133.5C42.5228 133.5 47 137.977 47 143.5V163.5V163.5C41.4772 163.5 37 159.023 37 153.5V144.655H39L37 140.25V133.5Z" fill="white"/>
<path d="M25 126V126C30.5228 126 35 130.477 35 136V140.314L32.5 144.638H35V176V176C29.4772 176 25 171.523 25 166V162.134L27.5 157.75H25V126Z" fill="white"/>
</svg>
