<svg xmlns="http://www.w3.org/2000/svg" width="35" height="50" viewBox="0 0 35 50" fill="none">
  <path d="M0.5 12V12C6.02285 12 10.5 16.4772 10.5 22V31.75H8.5L10.5 36.1029V42V42C4.97715 42 0.5 37.5228 0.5 32V12Z" fill="#C3F02C"/>
  <path d="M24.5 7.5V7.5C30.0228 7.5 34.5 11.9772 34.5 17.5V37.5V37.5C28.9772 37.5 24.5 33.0228 24.5 27.5V18.6551H26.5L24.5 14.25V7.5Z" fill="#C3F02C"/>
  <path d="M12.5 0V0C18.0228 0 22.5 4.47715 22.5 10V14.3144L20 18.6382H22.5V50V50C16.9772 50 12.5 45.5228 12.5 40V36.1341L15 31.75H12.5V0Z" fill="#C3F02C"/>
</svg>