<svg width="590" height="187" viewBox="0 0 590 187" fill="none" xmlns="http://www.w3.org/2000/svg">
<g opacity="0.05">
<path d="M12 187V187C12 181.477 16.4772 177 22 177H31.75V179L36.1029 177H42V177C42 182.523 37.5228 187 32 187H12Z" fill="#121212"/>
<path d="M7.5 163V163C7.5 157.477 11.9772 153 17.5 153H37.5V153C37.5 158.523 33.0228 163 27.5 163H18.6551V161L14.25 163H7.5Z" fill="#121212"/>
<path d="M0 175V175C0 169.477 4.47715 165 10 165H14.3144L18.6382 167.5V165L50 165V165C50 170.523 45.5228 175 40 175H36.1341L31.75 172.5V175H0Z" fill="#121212"/>
<path d="M12 143V143C12 137.477 16.4772 133 22 133H31.75V135L36.1029 133H42V133C42 138.523 37.5228 143 32 143H12Z" fill="#121212"/>
<path d="M7.5 119V119C7.5 113.477 11.9772 109 17.5 109L37.5 109V109C37.5 114.523 33.0228 119 27.5 119H18.6551V117L14.25 119H7.5Z" fill="#121212"/>
<path d="M0 131V131C0 125.477 4.47715 121 10 121H14.3144L18.6382 123.5V121L50 121V121C50 126.523 45.5228 131 40 131H36.1341L31.75 128.5V131H0Z" fill="#121212"/>
<path d="M12 99V99C12 93.4772 16.4772 89 22 89H31.75V91L36.1029 89H42V89C42 94.5228 37.5228 99 32 99H12Z" fill="#121212"/>
<path d="M7.5 75V75C7.5 69.4772 11.9772 65 17.5 65L37.5 65V65C37.5 70.5228 33.0228 75 27.5 75H18.6551V73L14.25 75H7.5Z" fill="#121212"/>
<path d="M0 87V87C0 81.4772 4.47715 77 10 77H14.3144L18.6382 79.5V77L50 77V77C50 82.5228 45.5228 87 40 87H36.1341L31.75 84.5V87L0 87Z" fill="#121212"/>
<path d="M12 55V55C12 49.4772 16.4772 45 22 45L31.75 45V47L36.1029 45L42 45V45C42 50.5228 37.5228 55 32 55L12 55Z" fill="#121212"/>
<path d="M7.5 31V31C7.5 25.4772 11.9772 21 17.5 21L37.5 21V21C37.5 26.5228 33.0228 31 27.5 31L18.6551 31V29L14.25 31L7.5 31Z" fill="#121212"/>
<path d="M0 43V43C0 37.4772 4.47715 33 10 33L14.3144 33L18.6382 35.5V33L50 33V33C50 38.5228 45.5228 43 40 43H36.1341L31.75 40.5V43L0 43Z" fill="#121212"/>
<path d="M72 187V187C72 181.477 76.4772 177 82 177H91.75V179L96.1029 177H102V177C102 182.523 97.5228 187 92 187H72Z" fill="#121212"/>
<path d="M67.5 163V163C67.5 157.477 71.9772 153 77.5 153H97.5V153C97.5 158.523 93.0228 163 87.5 163H78.6551V161L74.25 163H67.5Z" fill="#121212"/>
<path d="M60 175V175C60 169.477 64.4772 165 70 165H74.3144L78.6382 167.5V165L110 165V165C110 170.523 105.523 175 100 175H96.1341L91.75 172.5V175H60Z" fill="#121212"/>
<path d="M72 143V143C72 137.477 76.4772 133 82 133H91.75V135L96.1029 133H102V133C102 138.523 97.5228 143 92 143H72Z" fill="#121212"/>
<path d="M67.5 119V119C67.5 113.477 71.9772 109 77.5 109L97.5 109V109C97.5 114.523 93.0228 119 87.5 119H78.6551V117L74.25 119H67.5Z" fill="#121212"/>
<path d="M60 131V131C60 125.477 64.4772 121 70 121H74.3144L78.6382 123.5V121L110 121V121C110 126.523 105.523 131 100 131H96.1341L91.75 128.5V131H60Z" fill="#121212"/>
<path d="M72 99V99C72 93.4772 76.4772 89 82 89H91.75V91L96.1029 89H102V89C102 94.5228 97.5228 99 92 99H72Z" fill="#121212"/>
<path d="M67.5 75V75C67.5 69.4772 71.9772 65 77.5 65L97.5 65V65C97.5 70.5228 93.0228 75 87.5 75H78.6551V73L74.25 75H67.5Z" fill="#121212"/>
<path d="M60 87V87C60 81.4772 64.4772 77 70 77H74.3144L78.6382 79.5V77L110 77V77C110 82.5228 105.523 87 100 87H96.1341L91.75 84.5V87L60 87Z" fill="#121212"/>
<path d="M72 55V55C72 49.4772 76.4772 45 82 45L91.75 45V47L96.1029 45L102 45V45C102 50.5228 97.5228 55 92 55L72 55Z" fill="#121212"/>
<path d="M67.5 31V31C67.5 25.4772 71.9772 21 77.5 21L97.5 21V21C97.5 26.5228 93.0228 31 87.5 31L78.6551 31V29L74.25 31L67.5 31Z" fill="#121212"/>
<path d="M60 43V43C60 37.4772 64.4772 33 70 33L74.3144 33L78.6382 35.5V33L110 33V33C110 38.5228 105.523 43 100 43H96.1341L91.75 40.5V43L60 43Z" fill="#121212"/>
<path d="M132 187V187C132 181.477 136.477 177 142 177H151.75V179L156.103 177H162V177C162 182.523 157.523 187 152 187H132Z" fill="#121212"/>
<path d="M127.5 163V163C127.5 157.477 131.977 153 137.5 153H157.5V153C157.5 158.523 153.023 163 147.5 163H138.655V161L134.25 163H127.5Z" fill="#121212"/>
<path d="M120 175V175C120 169.477 124.477 165 130 165H134.314L138.638 167.5V165L170 165V165C170 170.523 165.523 175 160 175H156.134L151.75 172.5V175H120Z" fill="#121212"/>
<path d="M132 143V143C132 137.477 136.477 133 142 133H151.75V135L156.103 133H162V133C162 138.523 157.523 143 152 143H132Z" fill="#121212"/>
<path d="M127.5 119V119C127.5 113.477 131.977 109 137.5 109L157.5 109V109C157.5 114.523 153.023 119 147.5 119H138.655V117L134.25 119H127.5Z" fill="#121212"/>
<path d="M120 131V131C120 125.477 124.477 121 130 121H134.314L138.638 123.5V121L170 121V121C170 126.523 165.523 131 160 131H156.134L151.75 128.5V131H120Z" fill="#121212"/>
<path d="M132 99V99C132 93.4772 136.477 89 142 89H151.75V91L156.103 89H162V89C162 94.5228 157.523 99 152 99H132Z" fill="#121212"/>
<path d="M127.5 75V75C127.5 69.4772 131.977 65 137.5 65L157.5 65V65C157.5 70.5228 153.023 75 147.5 75H138.655V73L134.25 75H127.5Z" fill="#121212"/>
<path d="M120 87V87C120 81.4772 124.477 77 130 77H134.314L138.638 79.5V77L170 77V77C170 82.5228 165.523 87 160 87H156.134L151.75 84.5V87L120 87Z" fill="#121212"/>
<path d="M132 55V55C132 49.4772 136.477 45 142 45L151.75 45V47L156.103 45L162 45V45C162 50.5228 157.523 55 152 55L132 55Z" fill="#121212"/>
<path d="M127.5 31V31C127.5 25.4772 131.977 21 137.5 21L157.5 21V21C157.5 26.5228 153.023 31 147.5 31L138.655 31V29L134.25 31L127.5 31Z" fill="#121212"/>
<path d="M120 43V43C120 37.4772 124.477 33 130 33L134.314 33L138.638 35.5V33L170 33V33C170 38.5228 165.523 43 160 43H156.134L151.75 40.5V43L120 43Z" fill="#121212"/>
<path d="M192 187V187C192 181.477 196.477 177 202 177H211.75V179L216.103 177H222V177C222 182.523 217.523 187 212 187H192Z" fill="#121212"/>
<path d="M187.5 163V163C187.5 157.477 191.977 153 197.5 153H217.5V153C217.5 158.523 213.023 163 207.5 163H198.655V161L194.25 163H187.5Z" fill="#121212"/>
<path d="M180 175V175C180 169.477 184.477 165 190 165H194.314L198.638 167.5V165L230 165V165C230 170.523 225.523 175 220 175H216.134L211.75 172.5V175H180Z" fill="#121212"/>
<path d="M192 143V143C192 137.477 196.477 133 202 133H211.75V135L216.103 133H222V133C222 138.523 217.523 143 212 143H192Z" fill="#121212"/>
<path d="M187.5 119V119C187.5 113.477 191.977 109 197.5 109L217.5 109V109C217.5 114.523 213.023 119 207.5 119H198.655V117L194.25 119H187.5Z" fill="#121212"/>
<path d="M180 131V131C180 125.477 184.477 121 190 121H194.314L198.638 123.5V121L230 121V121C230 126.523 225.523 131 220 131H216.134L211.75 128.5V131H180Z" fill="#121212"/>
<path d="M192 99V99C192 93.4772 196.477 89 202 89H211.75V91L216.103 89H222V89C222 94.5228 217.523 99 212 99H192Z" fill="#121212"/>
<path d="M187.5 75V75C187.5 69.4772 191.977 65 197.5 65L217.5 65V65C217.5 70.5228 213.023 75 207.5 75H198.655V73L194.25 75H187.5Z" fill="#121212"/>
<path d="M180 87V87C180 81.4772 184.477 77 190 77H194.314L198.638 79.5V77L230 77V77C230 82.5228 225.523 87 220 87H216.134L211.75 84.5V87L180 87Z" fill="#121212"/>
<path d="M192 55V55C192 49.4772 196.477 45 202 45L211.75 45V47L216.103 45L222 45V45C222 50.5228 217.523 55 212 55L192 55Z" fill="#121212"/>
<path d="M187.5 31V31C187.5 25.4772 191.977 21 197.5 21L217.5 21V21C217.5 26.5228 213.023 31 207.5 31L198.655 31V29L194.25 31L187.5 31Z" fill="#121212"/>
<path d="M180 43V43C180 37.4772 184.477 33 190 33L194.314 33L198.638 35.5V33L230 33V33C230 38.5228 225.523 43 220 43H216.134L211.75 40.5V43L180 43Z" fill="#121212"/>
<path d="M252 187V187C252 181.477 256.477 177 262 177H271.75V179L276.103 177H282V177C282 182.523 277.523 187 272 187H252Z" fill="#121212"/>
<path d="M247.5 163V163C247.5 157.477 251.977 153 257.5 153H277.5V153C277.5 158.523 273.023 163 267.5 163H258.655V161L254.25 163H247.5Z" fill="#121212"/>
<path d="M240 175V175C240 169.477 244.477 165 250 165H254.314L258.638 167.5V165L290 165V165C290 170.523 285.523 175 280 175H276.134L271.75 172.5V175H240Z" fill="#121212"/>
<path d="M252 143V143C252 137.477 256.477 133 262 133H271.75V135L276.103 133H282V133C282 138.523 277.523 143 272 143H252Z" fill="#121212"/>
<path d="M247.5 119V119C247.5 113.477 251.977 109 257.5 109L277.5 109V109C277.5 114.523 273.023 119 267.5 119H258.655V117L254.25 119H247.5Z" fill="#121212"/>
<path d="M240 131V131C240 125.477 244.477 121 250 121H254.314L258.638 123.5V121L290 121V121C290 126.523 285.523 131 280 131H276.134L271.75 128.5V131H240Z" fill="#121212"/>
<path d="M252 99V99C252 93.4772 256.477 89 262 89H271.75V91L276.103 89H282V89C282 94.5228 277.523 99 272 99H252Z" fill="#121212"/>
<path d="M247.5 75V75C247.5 69.4772 251.977 65 257.5 65L277.5 65V65C277.5 70.5228 273.023 75 267.5 75H258.655V73L254.25 75H247.5Z" fill="#121212"/>
<path d="M240 87V87C240 81.4772 244.477 77 250 77H254.314L258.638 79.5V77L290 77V77C290 82.5228 285.523 87 280 87H276.134L271.75 84.5V87L240 87Z" fill="#121212"/>
<path d="M252 55V55C252 49.4772 256.477 45 262 45L271.75 45V47L276.103 45L282 45V45C282 50.5228 277.523 55 272 55L252 55Z" fill="#121212"/>
<path d="M247.5 31V31C247.5 25.4772 251.977 21 257.5 21L277.5 21V21C277.5 26.5228 273.023 31 267.5 31L258.655 31V29L254.25 31L247.5 31Z" fill="#121212"/>
<path d="M240 43V43C240 37.4772 244.477 33 250 33L254.314 33L258.638 35.5V33L290 33V33C290 38.5228 285.523 43 280 43H276.134L271.75 40.5V43L240 43Z" fill="#121212"/>
<path d="M312 187V187C312 181.477 316.477 177 322 177H331.75V179L336.103 177H342V177C342 182.523 337.523 187 332 187H312Z" fill="#121212"/>
<path d="M307.5 163V163C307.5 157.477 311.977 153 317.5 153H337.5V153C337.5 158.523 333.023 163 327.5 163H318.655V161L314.25 163H307.5Z" fill="#121212"/>
<path d="M300 175V175C300 169.477 304.477 165 310 165H314.314L318.638 167.5V165L350 165V165C350 170.523 345.523 175 340 175H336.134L331.75 172.5V175H300Z" fill="#121212"/>
<path d="M312 143V143C312 137.477 316.477 133 322 133H331.75V135L336.103 133H342V133C342 138.523 337.523 143 332 143H312Z" fill="#121212"/>
<path d="M307.5 119V119C307.5 113.477 311.977 109 317.5 109L337.5 109V109C337.5 114.523 333.023 119 327.5 119H318.655V117L314.25 119H307.5Z" fill="#121212"/>
<path d="M300 131V131C300 125.477 304.477 121 310 121H314.314L318.638 123.5V121L350 121V121C350 126.523 345.523 131 340 131H336.134L331.75 128.5V131H300Z" fill="#121212"/>
<path d="M312 99V99C312 93.4772 316.477 89 322 89H331.75V91L336.103 89H342V89C342 94.5228 337.523 99 332 99H312Z" fill="#121212"/>
<path d="M307.5 75V75C307.5 69.4772 311.977 65 317.5 65L337.5 65V65C337.5 70.5228 333.023 75 327.5 75H318.655V73L314.25 75H307.5Z" fill="#121212"/>
<path d="M300 87V87C300 81.4772 304.477 77 310 77H314.314L318.638 79.5V77L350 77V77C350 82.5228 345.523 87 340 87H336.134L331.75 84.5V87L300 87Z" fill="#121212"/>
<path d="M312 55V55C312 49.4772 316.477 45 322 45L331.75 45V47L336.103 45L342 45V45C342 50.5228 337.523 55 332 55L312 55Z" fill="#121212"/>
<path d="M307.5 31V31C307.5 25.4772 311.977 21 317.5 21L337.5 21V21C337.5 26.5228 333.023 31 327.5 31L318.655 31V29L314.25 31L307.5 31Z" fill="#121212"/>
<path d="M300 43V43C300 37.4772 304.477 33 310 33L314.314 33L318.638 35.5V33L350 33V33C350 38.5228 345.523 43 340 43H336.134L331.75 40.5V43L300 43Z" fill="#121212"/>
<path d="M372 187V187C372 181.477 376.477 177 382 177H391.75V179L396.103 177H402V177C402 182.523 397.523 187 392 187H372Z" fill="#121212"/>
<path d="M367.5 163V163C367.5 157.477 371.977 153 377.5 153H397.5V153C397.5 158.523 393.023 163 387.5 163H378.655V161L374.25 163H367.5Z" fill="#121212"/>
<path d="M360 175V175C360 169.477 364.477 165 370 165H374.314L378.638 167.5V165L410 165V165C410 170.523 405.523 175 400 175H396.134L391.75 172.5V175H360Z" fill="#121212"/>
<path d="M372 143V143C372 137.477 376.477 133 382 133H391.75V135L396.103 133H402V133C402 138.523 397.523 143 392 143H372Z" fill="#121212"/>
<path d="M367.5 119V119C367.5 113.477 371.977 109 377.5 109L397.5 109V109C397.5 114.523 393.023 119 387.5 119H378.655V117L374.25 119H367.5Z" fill="#121212"/>
<path d="M360 131V131C360 125.477 364.477 121 370 121H374.314L378.638 123.5V121L410 121V121C410 126.523 405.523 131 400 131H396.134L391.75 128.5V131H360Z" fill="#121212"/>
<path d="M372 99V99C372 93.4772 376.477 89 382 89H391.75V91L396.103 89H402V89C402 94.5228 397.523 99 392 99H372Z" fill="#121212"/>
<path d="M367.5 75V75C367.5 69.4772 371.977 65 377.5 65L397.5 65V65C397.5 70.5228 393.023 75 387.5 75H378.655V73L374.25 75H367.5Z" fill="#121212"/>
<path d="M360 87V87C360 81.4772 364.477 77 370 77H374.314L378.638 79.5V77L410 77V77C410 82.5228 405.523 87 400 87H396.134L391.75 84.5V87L360 87Z" fill="#121212"/>
<path d="M372 55V55C372 49.4772 376.477 45 382 45L391.75 45V47L396.103 45L402 45V45C402 50.5228 397.523 55 392 55L372 55Z" fill="#121212"/>
<path d="M367.5 31V31C367.5 25.4772 371.977 21 377.5 21L397.5 21V21C397.5 26.5228 393.023 31 387.5 31L378.655 31V29L374.25 31L367.5 31Z" fill="#121212"/>
<path d="M360 43V43C360 37.4772 364.477 33 370 33L374.314 33L378.638 35.5V33L410 33V33C410 38.5228 405.523 43 400 43H396.134L391.75 40.5V43L360 43Z" fill="#121212"/>
<path d="M432 187V187C432 181.477 436.477 177 442 177H451.75V179L456.103 177H462V177C462 182.523 457.523 187 452 187H432Z" fill="#121212"/>
<path d="M427.5 163V163C427.5 157.477 431.977 153 437.5 153H457.5V153C457.5 158.523 453.023 163 447.5 163H438.655V161L434.25 163H427.5Z" fill="#121212"/>
<path d="M420 175V175C420 169.477 424.477 165 430 165H434.314L438.638 167.5V165L470 165V165C470 170.523 465.523 175 460 175H456.134L451.75 172.5V175H420Z" fill="#121212"/>
<path d="M432 143V143C432 137.477 436.477 133 442 133H451.75V135L456.103 133H462V133C462 138.523 457.523 143 452 143H432Z" fill="#121212"/>
<path d="M427.5 119V119C427.5 113.477 431.977 109 437.5 109L457.5 109V109C457.5 114.523 453.023 119 447.5 119H438.655V117L434.25 119H427.5Z" fill="#121212"/>
<path d="M420 131V131C420 125.477 424.477 121 430 121H434.314L438.638 123.5V121L470 121V121C470 126.523 465.523 131 460 131H456.134L451.75 128.5V131H420Z" fill="#121212"/>
<path d="M432 99V99C432 93.4772 436.477 89 442 89H451.75V91L456.103 89H462V89C462 94.5228 457.523 99 452 99H432Z" fill="#121212"/>
<path d="M427.5 75V75C427.5 69.4772 431.977 65 437.5 65L457.5 65V65C457.5 70.5228 453.023 75 447.5 75H438.655V73L434.25 75H427.5Z" fill="#121212"/>
<path d="M420 87V87C420 81.4772 424.477 77 430 77H434.314L438.638 79.5V77L470 77V77C470 82.5228 465.523 87 460 87H456.134L451.75 84.5V87L420 87Z" fill="#121212"/>
<path d="M432 55V55C432 49.4772 436.477 45 442 45L451.75 45V47L456.103 45L462 45V45C462 50.5228 457.523 55 452 55L432 55Z" fill="#121212"/>
<path d="M427.5 31V31C427.5 25.4772 431.977 21 437.5 21L457.5 21V21C457.5 26.5228 453.023 31 447.5 31L438.655 31V29L434.25 31L427.5 31Z" fill="#121212"/>
<path d="M420 43V43C420 37.4772 424.477 33 430 33L434.314 33L438.638 35.5V33L470 33V33C470 38.5228 465.523 43 460 43H456.134L451.75 40.5V43L420 43Z" fill="#121212"/>
<path d="M492 187V187C492 181.477 496.477 177 502 177H511.75V179L516.103 177H522V177C522 182.523 517.523 187 512 187H492Z" fill="#121212"/>
<path d="M487.5 163V163C487.5 157.477 491.977 153 497.5 153H517.5V153C517.5 158.523 513.023 163 507.5 163H498.655V161L494.25 163H487.5Z" fill="#121212"/>
<path d="M480 175V175C480 169.477 484.477 165 490 165H494.314L498.638 167.5V165L530 165V165C530 170.523 525.523 175 520 175H516.134L511.75 172.5V175H480Z" fill="#121212"/>
<path d="M492 143V143C492 137.477 496.477 133 502 133H511.75V135L516.103 133H522V133C522 138.523 517.523 143 512 143H492Z" fill="#121212"/>
<path d="M487.5 119V119C487.5 113.477 491.977 109 497.5 109L517.5 109V109C517.5 114.523 513.023 119 507.5 119H498.655V117L494.25 119H487.5Z" fill="#121212"/>
<path d="M480 131V131C480 125.477 484.477 121 490 121H494.314L498.638 123.5V121L530 121V121C530 126.523 525.523 131 520 131H516.134L511.75 128.5V131H480Z" fill="#121212"/>
<path d="M492 99V99C492 93.4772 496.477 89 502 89H511.75V91L516.103 89H522V89C522 94.5228 517.523 99 512 99H492Z" fill="#121212"/>
<path d="M487.5 75V75C487.5 69.4772 491.977 65 497.5 65L517.5 65V65C517.5 70.5228 513.023 75 507.5 75H498.655V73L494.25 75H487.5Z" fill="#121212"/>
<path d="M480 87V87C480 81.4772 484.477 77 490 77H494.314L498.638 79.5V77L530 77V77C530 82.5228 525.523 87 520 87H516.134L511.75 84.5V87L480 87Z" fill="#121212"/>
<path d="M492 55V55C492 49.4772 496.477 45 502 45L511.75 45V47L516.103 45L522 45V45C522 50.5228 517.523 55 512 55L492 55Z" fill="#121212"/>
<path d="M487.5 31V31C487.5 25.4772 491.977 21 497.5 21L517.5 21V21C517.5 26.5228 513.023 31 507.5 31L498.655 31V29L494.25 31L487.5 31Z" fill="#121212"/>
<path d="M480 43V43C480 37.4772 484.477 33 490 33L494.314 33L498.638 35.5V33L530 33V33C530 38.5228 525.523 43 520 43H516.134L511.75 40.5V43L480 43Z" fill="#121212"/>
<path d="M552 187V187C552 181.477 556.477 177 562 177H571.75V179L576.103 177H582V177C582 182.523 577.523 187 572 187H552Z" fill="#121212"/>
<path d="M547.5 163V163C547.5 157.477 551.977 153 557.5 153H577.5V153C577.5 158.523 573.023 163 567.5 163H558.655V161L554.25 163H547.5Z" fill="#121212"/>
<path d="M540 175V175C540 169.477 544.477 165 550 165H554.314L558.638 167.5V165L590 165V165C590 170.523 585.523 175 580 175H576.134L571.75 172.5V175H540Z" fill="#121212"/>
<path d="M552 143V143C552 137.477 556.477 133 562 133H571.75V135L576.103 133H582V133C582 138.523 577.523 143 572 143H552Z" fill="#121212"/>
<path d="M547.5 119V119C547.5 113.477 551.977 109 557.5 109L577.5 109V109C577.5 114.523 573.023 119 567.5 119H558.655V117L554.25 119H547.5Z" fill="#121212"/>
<path d="M540 131V131C540 125.477 544.477 121 550 121H554.314L558.638 123.5V121L590 121V121C590 126.523 585.523 131 580 131H576.134L571.75 128.5V131H540Z" fill="#121212"/>
<path d="M552 99V99C552 93.4772 556.477 89 562 89H571.75V91L576.103 89H582V89C582 94.5228 577.523 99 572 99H552Z" fill="#121212"/>
<path d="M547.5 75V75C547.5 69.4772 551.977 65 557.5 65L577.5 65V65C577.5 70.5228 573.023 75 567.5 75H558.655V73L554.25 75H547.5Z" fill="#121212"/>
<path d="M540 87V87C540 81.4772 544.477 77 550 77H554.314L558.638 79.5V77L590 77V77C590 82.5228 585.523 87 580 87H576.134L571.75 84.5V87L540 87Z" fill="#121212"/>
<path d="M552 55V55C552 49.4772 556.477 45 562 45L571.75 45V47L576.103 45L582 45V45C582 50.5228 577.523 55 572 55L552 55Z" fill="#121212"/>
<path d="M547.5 31V31C547.5 25.4772 551.977 21 557.5 21L577.5 21V21C577.5 26.5228 573.023 31 567.5 31L558.655 31V29L554.25 31L547.5 31Z" fill="#121212"/>
<path d="M540 43V43C540 37.4772 544.477 33 550 33L554.314 33L558.638 35.5V33L590 33V33C590 38.5228 585.523 43 580 43H576.134L571.75 40.5V43L540 43Z" fill="#121212"/>
</g>
</svg>
