<svg width="80" height="81" viewBox="0 0 80 81" fill="none" xmlns="http://www.w3.org/2000/svg">
<path d="M40 12.0606H40.0772L40.1508 12.0374C47.859 9.5998 55.1679 12.7887 60.5949 18.6765C66.026 24.5689 69.5 33.1002 69.5 41.1363C69.5 49.1459 66.1975 55.3732 60.8553 60.123C55.5123 64.8735 48.1197 68.1519 39.9384 70.2118C23.6831 70.1791 10.525 57.1921 10.5 41.1819C13.4874 25.0632 23.7845 12.0606 40 12.0606Z" stroke="white"/>
<path d="M66.3334 22.8944L66.3782 22.9589L66.4408 23.0068C73.5715 28.458 75.21 37.1029 73.1515 45.7424C71.0917 54.3871 65.3434 62.9263 57.8627 68.0049C50.4034 73.0691 42.5208 74.0087 34.7337 72.1664C26.9463 70.3241 19.2415 65.6947 12.1765 59.5858C1.9638 44.8366 5.74724 24.6958 20.6459 14.552C37.5214 7.07792 56.1137 8.19477 66.3334 22.8944Z" stroke="white"/>
</svg>
