<svg width="125" height="51" viewBox="0 0 125 51" fill="none" xmlns="http://www.w3.org/2000/svg">
<path id="Line 139" d="M0.666667 5.55097C0.666667 2.60545 3.05448 0.217639 6 0.217639C8.94552 0.217639 11.3333 2.60545 11.3333 5.55097C11.3333 8.49649 8.94552 10.8843 6 10.8843C3.05448 10.8843 0.666667 8.49649 0.666667 5.55097ZM125 31.1432L116.719 39.1901L113.891 27.9947L125 31.1432ZM35.897 25.6797L35.3477 26.5154L35.3385 26.5092L35.897 25.6797ZM91.8558 39.5158L91.6109 38.5462L91.8558 39.5158ZM87.5455 33.8702L86.5708 34.094L87.5455 33.8702ZM86.0693 27.4435L85.0947 27.6674L86.0693 27.4435ZM6.55849 4.72146L36.4555 24.8502L35.3385 26.5092L5.44151 6.38049L6.55849 4.72146ZM36.4463 24.8441L69.0495 46.2756L67.9509 47.9469L35.3477 26.5154L36.4463 24.8441ZM86.5708 34.094L85.0947 27.6674L87.0439 27.2196L88.5201 33.6463L86.5708 34.094ZM76.0243 39.0574H87.5002V41.0574H76.0243V39.0574ZM91.6109 38.5462L116.029 32.3779L116.519 34.317L92.1008 40.4853L91.6109 38.5462ZM87.5002 39.0574C88.8863 39.0574 90.2671 38.8857 91.6109 38.5462L92.1008 40.4853C90.5967 40.8652 89.0515 41.0574 87.5002 41.0574V39.0574ZM67.5107 25.9916C64.7942 32.1437 69.2992 39.0574 76.0243 39.0574V41.0574C67.8539 41.0574 62.3809 32.6579 65.6811 25.1838L67.5107 25.9916ZM69.0495 46.2756C77.7108 51.9692 88.8912 44.1961 86.5708 34.094L88.5201 33.6463C91.2441 45.5056 78.1189 54.6308 67.9509 47.9469L69.0495 46.2756ZM85.0947 27.6674C83.0904 18.9418 71.1269 17.8017 67.5107 25.9916L65.6811 25.1838C70.0745 15.2338 84.609 16.6189 87.0439 27.2196L85.0947 27.6674Z" fill="url(#paint0_linear_5006_25622)"/>
<defs>
<linearGradient id="paint0_linear_5006_25622" x1="125" y1="30.712" x2="6" y2="30.712" gradientUnits="userSpaceOnUse">
<stop stop-color="#C3F02C"/>
<stop offset="1" stop-color="#3A5646"/>
</linearGradient>
</defs>
</svg>
