<svg width="224" height="1000" viewBox="0 0 224 1000" fill="none" xmlns="http://www.w3.org/2000/svg">
<path d="M218.583 0.0726831C221.526 0.197655 223.811 2.68463 223.686 5.6275C223.561 8.57036 221.074 10.8547 218.131 10.7297C215.188 10.6048 212.904 8.1178 213.029 5.17493C213.154 2.23207 215.641 -0.0522892 218.583 0.0726831ZM69.0728 999.963L62.4946 990.473L74.0023 989.521L69.0728 999.963ZM123.653 252.842L122.717 252.491L122.719 252.484L123.653 252.842ZM44.4347 702.109L43.4381 702.192L43.433 702.129L43.4356 702.067L44.4347 702.109ZM6.79716 564.813L5.8607 564.462L6.79716 564.813ZM113.053 667.738L112.672 666.813L113.053 667.738ZM219.291 5.75866L124.587 253.199L122.719 252.484L217.423 5.04377L219.291 5.75866ZM124.59 253.192L7.73362 565.164L5.8607 564.462L122.717 252.491L124.59 253.192ZM112.672 666.813L136.554 656.99L137.315 658.839L113.433 668.663L112.672 666.813ZM49.9309 596.254L45.4338 702.152L43.4356 702.067L47.9327 596.169L49.9309 596.254ZM45.4313 702.027L69.3275 990.911L67.3343 991.076L43.4381 702.192L45.4313 702.027ZM156.312 553.774C117.371 516.127 52.2289 542.139 49.9309 596.254L47.9327 596.169C50.3039 540.331 117.521 513.49 157.702 552.336L156.312 553.774ZM7.73362 565.164C-16.6769 630.333 48.3139 693.286 112.672 666.813L113.433 668.663C47.4595 695.8 -19.1624 631.267 5.8607 564.462L7.73362 565.164ZM136.554 656.99C178.423 639.767 188.86 585.242 156.312 553.774L157.702 552.336C191.287 584.806 180.517 641.068 137.315 658.839L136.554 656.99Z" fill="url(#paint0_linear_5006_25642)"/>
<defs>
<linearGradient id="paint0_linear_5006_25642" x1="70.8734" y1="1000.04" x2="113.301" y2="0.939895" gradientUnits="userSpaceOnUse">
<stop stop-color="#C3F02C"/>
<stop offset="1" stop-color="#3A5646"/>
</linearGradient>
</defs>
</svg>
